<?xml version="1.0" standalone="no"?>
<!DOCTYPE svg PUBLIC "-//W3C//DTD SVG 20010904//EN"
 "http://www.w3.org/TR/2001/REC-SVG-20010904/DTD/svg10.dtd">
<svg version="1.0" xmlns="http://www.w3.org/2000/svg"
 width="658.000000pt" height="646.000000pt" viewBox="0 0 658.000000 646.000000"
 preserveAspectRatio="xMidYMid meet">
<metadata>
Created by potrace 1.10, written by Peter Selinger 2001-2011
</metadata>
<g transform="translate(0.000000,646.000000) scale(0.050000,-0.050000)"
fill="#000000" stroke="none">
<path d="M0 12805 c0 -257 59 -308 213 -186 32 25 82 41 130 41 89 0 102 36
32 88 -31 24 -37 37 -20 45 14 6 39 37 56 69 l30 58 -90 0 c-85 0 -116 -22
-71 -50 36 -22 -23 -82 -86 -87 -72 -5 -93 -19 -59 -40 38 -23 -5 -69 -51 -54
-44 14 -83 164 -55 210 7 11 4 21 -8 21 -12 0 -21 -47 -21 -115z"/>
<path d="M565 12892 c19 -14 35 -37 35 -49 0 -40 33 -25 56 27 22 49 21 50
-51 49 -67 0 -71 -3 -40 -27z"/>
<path d="M1164 12887 c18 -18 47 -27 64 -20 55 21 35 53 -32 53 -60 0 -62 -2
-32 -33z"/>
<path d="M1541 12861 c38 -33 61 -60 52 -60 -44 -2 38 -61 84 -61 29 0 105
-36 168 -80 117 -81 273 -112 305 -60 7 11 0 20 -14 20 -88 0 -197 185 -126
213 45 17 21 38 -53 43 -36 3 -72 15 -79 27 -16 26 -58 5 -58 -30 0 -39 -115
-97 -162 -82 -34 10 -40 24 -31 71 12 57 10 58 -72 58 l-83 0 69 -59z"/>
<path d="M2159 12902 c79 -14 99 -59 91 -209 -2 -51 3 -93 12 -93 25 0 54 65
47 105 -3 21 7 35 28 36 30 0 30 3 -2 27 -54 41 -44 105 20 129 45 16 24 20
-105 19 -104 -1 -136 -6 -91 -14z"/>
<path d="M2470 12845 c20 -106 45 -145 91 -139 65 10 81 39 97 178 1 7 18 16
37 21 19 4 -27 9 -102 10 l-137 4 14 -74z"/>
<path d="M2880 12884 c0 -19 -18 -51 -40 -69 -47 -41 -50 -62 -12 -94 33 -27
112 11 112 54 0 14 9 25 19 25 11 0 15 -13 8 -30 -9 -23 5 -30 62 -30 44 0 68
8 61 20 -7 11 -25 20 -41 20 -16 0 -29 14 -29 31 0 17 -9 26 -20 19 -11 -7
-20 -3 -20 8 0 11 9 25 20 32 42 26 17 50 -50 50 -54 0 -70 -8 -70 -36z"/>
<path d="M3300 12905 c28 -5 66 -26 86 -47 45 -49 68 -48 84 2 13 43 40 52 59
21 6 -10 -8 -32 -31 -48 -70 -49 -38 -133 51 -133 38 0 74 -9 81 -20 32 -52
49 -9 45 110 l-5 130 -210 -3 c-115 -1 -187 -7 -160 -12z"/>
<path d="M3804 12732 c3 -104 2 -186 -4 -183 -54 32 -100 -34 -90 -128 8 -77
4 -98 -16 -90 -15 6 -38 -12 -53 -39 -24 -45 -129 -91 -153 -67 -4 5 -11 45
-13 89 -4 62 -12 78 -35 70 -57 -19 -160 -106 -160 -135 0 -16 -11 -29 -23
-29 -13 0 -3 -22 22 -49 81 -86 33 -111 -201 -105 -109 2 -198 10 -198 17 0 7
-16 18 -35 25 -19 6 -45 17 -58 23 -45 22 -42 -47 5 -101 45 -53 57 -56 187
-52 151 5 181 -16 181 -127 0 -54 -160 -80 -190 -31 -18 29 -64 25 -76 -7 -19
-50 15 -76 72 -54 71 27 114 7 114 -52 0 -49 -82 -100 -122 -76 -34 21 -17
-81 21 -131 40 -51 98 -20 100 53 1 27 66 46 157 47 39 0 61 8 54 20 -7 11
-30 20 -51 20 -22 0 -39 10 -39 22 0 12 -12 18 -27 12 -15 -6 -39 -3 -55 7
-41 25 0 58 82 64 53 5 70 17 81 55 31 117 99 220 145 220 25 0 55 8 65 18 41
38 105 43 137 11 39 -39 121 15 168 111 18 37 49 62 86 70 48 11 58 23 58 72
0 67 149 89 199 29 26 -31 81 -20 81 16 0 13 -20 32 -45 43 -37 17 -44 34 -39
94 4 57 -3 75 -33 85 -22 7 -45 28 -52 46 -7 19 -7 27 1 20 26 -26 68 29 68
87 0 79 -25 73 -117 -26 -121 -129 -184 -46 -114 149 l26 75 -59 0 -59 0 7
-188z m222 -192 c-7 -26 -27 -40 -60 -40 -92 0 -132 -35 -96 -85 40 -58 38
-68 -14 -82 -66 -17 -102 21 -67 71 15 23 24 52 19 65 -13 33 26 63 112 87
105 30 117 28 106 -16z"/>
<path d="M4460 12890 c0 -43 97 -78 132 -48 54 45 32 78 -52 78 -58 0 -80 -8
-80 -30z"/>
<path d="M4976 12885 c-15 -19 -53 -49 -86 -66 -141 -72 -57 -134 113 -84
l105 30 -58 47 c-62 49 -52 63 50 70 83 7 123 -1 111 -21 -7 -10 21 -28 62
-39 41 -12 96 -45 122 -75 l46 -55 -65 -65 c-120 -119 -198 -137 -287 -66 -78
62 -137 75 -161 36 -8 -14 -5 -18 7 -10 44 27 85 -11 85 -77 0 -48 10 -68 40
-76 22 -5 48 -34 59 -62 18 -47 31 -52 122 -52 94 0 103 -4 121 -59 21 -57 21
-58 59 -20 23 23 57 35 84 30 25 -4 61 -9 80 -10 19 0 35 -16 35 -33 0 -28 5
-29 34 -5 25 20 30 20 18 1 -11 -18 -3 -23 31 -17 26 5 80 15 120 23 70 13
157 -93 157 -190 0 -27 -116 -64 -159 -50 -48 15 -52 -6 -14 -96 45 -107 85
-127 110 -55 14 40 34 61 60 61 60 0 103 21 103 51 0 96 230 -4 263 -114 13
-42 31 -77 41 -77 10 0 13 -9 6 -20 -7 -11 2 -20 19 -20 17 0 31 -10 31 -21 0
-12 -7 -17 -16 -11 -9 5 -43 -6 -75 -26 -67 -40 -109 -34 -109 16 0 62 -107
146 -167 131 -62 -16 -63 -18 -22 -64 16 -19 50 -60 75 -90 30 -38 66 -57 114
-61 60 -4 71 -13 76 -59 7 -56 18 -62 98 -56 24 2 60 -14 79 -37 28 -33 51
-38 129 -30 81 9 96 5 107 -28 15 -49 -5 -104 -40 -104 -14 0 -40 -6 -58 -12
-18 -7 -31 -5 -29 5 10 41 -30 87 -74 87 -26 0 -48 10 -48 22 0 14 -19 18 -50
10 -32 -8 -50 -4 -50 11 0 13 -6 18 -13 11 -7 -7 -29 6 -49 29 -25 28 -49 37
-72 28 -34 -13 -34 -15 -1 -33 19 -11 35 -33 35 -49 0 -26 11 -32 53 -28 6 1
22 -18 35 -42 12 -25 28 -41 35 -37 20 12 97 -65 85 -85 -6 -10 -41 -16 -78
-14 -36 3 -80 -7 -98 -21 -27 -22 -42 -15 -107 53 -77 82 -142 111 -185 85
-18 -11 -14 -19 13 -28 89 -28 101 -212 15 -212 -50 0 -30 -36 32 -57 33 -12
60 -30 60 -41 0 -12 -27 -35 -60 -52 -63 -32 -68 -43 -63 -136 4 -65 -44 -123
-88 -107 -16 7 -29 3 -29 -8 0 -10 -9 -19 -20 -19 -11 0 -20 38 -20 85 0 83
69 195 121 195 10 0 19 14 19 30 0 43 -95 38 -228 -13 -95 -36 -154 -97 -94
-97 10 0 25 -47 33 -104 7 -57 24 -115 36 -129 59 -66 74 -87 61 -87 -7 0 -3
-12 9 -27 13 -15 19 -64 15 -110 -5 -46 -1 -88 8 -93 9 -6 23 -46 30 -90 10
-59 29 -89 72 -114 84 -50 90 -295 8 -326 -50 -19 -67 -67 -31 -90 12 -7 13
-30 1 -59 -24 -63 30 -114 95 -89 56 21 58 50 5 64 -96 25 -35 147 85 173 102
21 94 206 -12 310 -71 69 -100 172 -55 200 9 6 24 44 31 86 19 104 121 208
189 193 44 -9 47 -7 17 12 -41 26 -52 220 -12 220 14 0 10 15 -10 37 -100 111
39 363 143 259 28 -28 32 -129 5 -145 -112 -70 -33 -289 96 -265 41 8 45 3 34
-43 -35 -151 -86 -203 -127 -130 -10 18 -29 26 -41 19 -31 -20 -29 -43 8 -81
60 -59 28 -100 -81 -107 -108 -6 -150 -52 -150 -161 0 -149 109 -124 184 42
32 70 76 102 76 54 0 -11 16 -38 36 -59 27 -29 34 -65 29 -154 -8 -167 -8
-169 7 -243 10 -50 2 -87 -31 -146 -29 -50 -40 -96 -33 -127 14 -55 -4 -115
-30 -99 -32 20 -19 -151 15 -203 31 -47 31 -55 -12 -141 -37 -73 -41 -100 -24
-137 16 -36 14 -52 -8 -71 -16 -13 -29 -35 -29 -49 0 -69 148 -46 186 28 27
54 58 74 139 91 72 15 70 62 -2 87 -65 23 -94 193 -67 394 l14 100 74 -6 c58
-5 78 2 96 36 21 40 26 41 58 12 19 -18 64 -32 99 -32 50 0 68 -11 83 -50 20
-54 64 -63 149 -30 94 35 23 164 -79 145 -78 -15 -141 10 -166 65 -13 27 -37
50 -54 50 -21 0 -30 21 -30 69 0 87 36 111 81 54 20 -24 43 -43 53 -43 10 0
49 -32 86 -70 44 -45 80 -66 99 -59 100 40 181 -12 99 -62 -37 -23 -16 -66 37
-78 100 -22 174 -171 86 -171 -20 0 -41 -18 -47 -39 -10 -40 -170 -47 -260
-10 -41 16 -79 -22 -125 -126 -25 -55 -40 -65 -97 -65 -70 0 -125 -43 -102
-80 9 -14 46 -17 100 -9 72 11 93 6 129 -30 24 -24 59 -41 77 -37 51 10 54 94
5 139 -59 55 -40 70 110 86 161 18 280 -17 218 -62 -20 -15 -60 -27 -89 -27
-77 0 -86 -20 -29 -64 45 -36 47 -42 19 -82 -28 -40 -27 -46 8 -74 22 -17 42
-60 45 -100 4 -38 22 -82 42 -96 45 -34 45 -75 -2 -125 -22 -24 -34 -59 -28
-87 10 -54 -44 -171 -81 -174 -13 -2 -35 -1 -49 1 -14 1 -25 -7 -25 -20 0 -27
-50 -79 -76 -79 -21 0 -43 113 -44 225 0 78 35 115 140 145 120 35 145 93 54
126 -104 37 -153 30 -174 -25 -22 -60 -153 -94 -182 -49 -35 56 -19 134 34
173 94 68 52 122 -77 100 -58 -10 -141 -20 -185 -22 l-80 -4 -11 -105 c-5 -58
-3 -117 6 -130 9 -13 14 -64 13 -114 -3 -99 16 -166 44 -149 10 6 18 40 18 75
0 356 25 406 163 332 l45 -24 -50 -42 c-78 -65 -106 -146 -60 -171 20 -11 42
-14 48 -8 7 7 35 6 63 -1 61 -15 67 -63 11 -78 -70 -18 -45 -56 32 -50 79 7
124 -34 102 -91 -21 -55 -171 -45 -192 12 -10 25 -14 51 -10 58 5 7 -10 9 -32
3 -43 -11 -46 -21 -40 -121 2 -47 -5 -65 -28 -65 -18 0 -32 17 -32 38 0 139
-131 56 -152 -96 -16 -120 -27 -130 -120 -113 -82 15 -110 65 -59 103 29 21
91 115 91 138 0 3 -27 15 -60 27 -67 23 -78 58 -25 77 70 25 86 48 63 90 -16
29 -15 47 0 62 12 12 22 38 22 58 0 35 -16 41 -120 44 -57 2 -95 118 -98 306
-1 57 -12 110 -25 118 -15 9 -12 19 10 32 57 31 43 153 -20 177 -46 18 -51 28
-41 89 13 80 -14 107 -62 64 -19 -17 -59 -37 -89 -45 -119 -29 -96 -131 26
-114 86 11 100 -9 42 -62 -43 -39 -76 -42 -90 -8 -7 18 -10 17 -11 -3 -1 -16
-14 -43 -29 -60 -32 -39 -93 -253 -93 -330 0 -31 -18 -70 -40 -89 -75 -62 -76
-623 -1 -623 73 0 127 -175 134 -435 l7 -265 -47 0 c-59 0 -71 -13 -58 -61 14
-57 60 -48 94 19 17 32 41 62 54 66 14 5 28 48 32 97 9 119 9 117 -6 213 -28
170 25 239 86 112 56 -117 147 -129 454 -57 77 18 158 49 180 69 23 20 76 42
120 49 46 7 97 32 124 61 38 41 217 112 283 112 10 0 30 13 44 29 13 17 57 36
97 43 74 14 198 55 277 93 40 19 42 25 15 62 -45 65 -35 126 28 171 75 54 103
25 103 -109 0 -124 9 -136 81 -98 40 20 157 32 401 39 237 7 363 20 402 39 32
16 61 20 67 9 13 -20 116 -24 184 -5 l45 12 0 2287 0 2288 -109 0 c-60 0 -114
-9 -121 -20 -7 -11 -34 -20 -61 -20 -27 0 -49 -9 -49 -20 0 -11 8 -20 17 -20
59 0 143 -124 143 -212 l0 -91 -128 10 c-92 8 -138 3 -165 -17 -43 -33 -43
-33 143 -39 134 -5 143 -10 133 -69 -5 -30 -67 -44 -95 -21 -19 17 -39 13 -77
-14 -54 -39 -61 -107 -13 -123 18 -6 22 -1 12 16 -11 18 -8 21 8 11 15 -9 44
2 70 27 l45 43 38 -42 c44 -49 -5 -110 -73 -93 -86 23 -114 -145 -66 -391 12
-61 48 -56 48 6 0 25 24 48 68 67 37 15 73 37 80 49 7 12 27 16 44 10 26 -10
26 -16 1 -44 -15 -18 -32 -46 -37 -62 -4 -15 -39 -38 -75 -51 -40 -13 -71 -39
-76 -61 -10 -51 -5 -212 7 -232 6 -9 -3 -12 -19 -5 -16 6 -35 1 -42 -11 -7
-11 -62 -21 -121 -21 -88 0 -125 -11 -194 -59 l-86 -60 -35 42 c-19 23 -35 53
-35 68 0 18 -25 26 -79 24 -44 -2 -86 4 -95 13 -18 18 91 112 130 112 15 0 21
9 14 20 -12 20 12 27 73 21 69 -6 42 140 -27 150 -135 21 -126 25 -120 -64 9
-123 -230 -237 -252 -121 -10 49 36 102 63 75 33 -33 53 -25 53 20 0 58 36
119 71 119 16 0 29 9 29 20 0 11 -40 20 -90 20 -85 0 -108 -15 -76 -48 8 -7
16 -35 17 -61 4 -65 -84 -54 -141 17 -51 63 -78 65 -118 8 l-31 -43 -38 44
-38 44 -63 -59 c-47 -44 -62 -75 -62 -131 0 -57 -10 -76 -48 -90 -65 -25 -276
-23 -306 3 -19 15 -29 12 -38 -11 -17 -46 9 -80 42 -53 21 18 25 14 16 -19
-13 -49 -32 -52 -66 -11 -60 73 -76 -85 -19 -192 26 -48 12 -98 -27 -98 -39 0
-134 -119 -147 -183 -16 -78 -121 -120 -161 -66 -27 37 -29 37 -48 4 -24 -42
-65 -45 -96 -7 -19 22 -10 54 40 149 l63 121 94 -12 c114 -13 125 7 107 207
-6 71 -3 127 6 126 43 -8 88 3 88 21 0 11 -36 20 -81 20 -95 0 -117 34 -69
107 36 56 14 133 -39 133 -42 0 -105 -90 -120 -170 -14 -74 -30 -83 -92 -49
-43 22 -50 87 -20 167 16 42 12 59 -21 89 -37 35 -38 40 -7 71 18 18 28 46 22
63 -18 46 35 34 94 -20 52 -48 99 -53 206 -21 13 4 39 -10 58 -31 19 -22 56
-39 81 -39 62 0 111 -54 107 -118 -6 -99 -3 -105 43 -81 23 12 63 17 89 11 35
-9 49 -2 59 28 7 22 37 45 66 52 109 24 116 29 115 76 -1 65 -20 80 -51 42
-28 -34 -160 -42 -160 -9 0 115 187 183 211 76 11 -53 19 -59 66 -47 84 21
113 53 75 81 -21 15 -39 76 -51 170 -12 97 -29 152 -50 163 -17 10 -31 44 -31
77 0 62 -73 239 -108 263 -11 7 -35 52 -53 99 -39 100 -143 129 -155 43 -9
-63 -57 -98 -72 -52 -6 20 -9 41 -7 48 21 52 -50 71 -126 33 l-81 -40 61 -37
c69 -43 72 -53 32 -111 -34 -49 -23 -67 43 -67 31 0 55 17 70 50 24 52 52 58
179 38 68 -12 72 -17 73 -90 2 -98 -44 -153 -89 -108 -16 17 -47 30 -67 30
-21 0 -44 11 -52 24 -25 39 -66 -111 -50 -186 11 -53 27 -71 77 -85 35 -10 69
-34 75 -54 16 -49 59 -61 103 -29 36 27 35 29 -8 60 -94 67 -12 167 91 112 42
-22 81 -198 55 -241 -16 -25 -84 -28 -99 -4 -18 28 -110 2 -121 -35 -22 -68
-290 -104 -441 -59 -81 23 -161 145 -152 232 3 35 81 31 95 -5 49 -128 213
-92 230 51 15 116 3 138 -77 139 -62 0 -113 99 -87 167 14 37 11 56 -10 74
-17 14 -40 64 -52 113 -25 98 -77 112 -97 26 -14 -62 -75 -74 -158 -31 -37 19
-64 23 -72 11 -40 -65 -190 27 -190 116 0 33 -12 44 -48 44 -52 0 -85 -55 -53
-87 64 -64 -27 -147 -131 -121 -58 15 -277 -10 -258 -29 17 -17 24 -17 175
-21 l125 -2 60 -114 c33 -63 57 -131 54 -150 -4 -20 6 -36 21 -36 34 0 135
150 135 200 0 52 50 63 96 19 40 -37 41 -36 73 12 71 108 311 1 250 -112 -14
-27 -14 -52 2 -81 16 -31 17 -48 1 -64 -35 -35 -128 8 -142 66 -13 58 -93 81
-112 32 -16 -42 26 -160 72 -202 50 -45 37 -64 -61 -90 -67 -18 -79 -30 -79
-76 -1 -72 -29 -113 -68 -98 -21 8 -32 37 -32 82 0 86 -28 106 -67 50 -23 -33
-40 -38 -76 -25 -26 9 -60 16 -76 17 -23 0 -27 24 -21 110 18 256 16 268 -50
281 -110 21 -156 -43 -69 -97 52 -33 32 -64 -41 -64 -42 0 -67 15 -92 58 -43
72 -143 107 -209 71 -50 -26 -107 -18 -88 13 7 10 20 13 31 7 10 -7 18 -5 16
5 -7 43 5 66 37 66 24 0 44 27 60 80 34 109 -10 184 -103 179 -104 -5 -110 -2
-101 61 6 52 2 58 -28 42 -21 -12 -46 -12 -64 -1 -55 35 -294 23 -323 -16z
m3879 -748 c31 -31 -30 -137 -79 -137 -39 0 -76 57 -76 119 0 47 113 60 155
18z m-1138 -483 c77 -93 -99 -249 -184 -164 -29 29 -21 108 17 169 18 30 141
26 167 -5z m-1051 -102 c11 -26 -20 -72 -48 -72 -20 0 -40 61 -27 82 17 27 63
22 75 -10z m2192 -60 c70 -84 -104 -202 -227 -154 -74 29 -150 -18 -147 -91 1
-36 -8 -78 -21 -93 -69 -83 63 -68 140 16 60 66 66 68 100 37 52 -47 46 -104
-13 -127 -96 -37 -20 -178 97 -181 12 0 48 -26 78 -57 l56 -56 -83 -57 -82
-57 -35 46 c-26 35 -46 43 -78 33 -49 -16 -59 -71 -13 -71 17 0 46 -18 65 -40
18 -22 44 -40 57 -40 58 0 87 -100 57 -195 -10 -33 -6 -45 17 -45 26 0 74 -93
74 -144 0 -24 -80 0 -122 36 -60 54 -103 36 -87 -37 8 -36 26 -72 41 -81 29
-16 128 -211 128 -250 0 -25 -69 -68 -85 -53 -10 11 -88 31 -130 34 -16 1 -18
10 -6 24 13 15 6 31 -19 46 -24 15 -43 17 -50 5 -7 -11 -43 -20 -81 -20 -89 0
-154 120 -98 181 38 42 189 -4 189 -57 0 -21 12 -17 40 16 52 60 51 72 -13
131 -69 64 -167 67 -167 6 0 -43 -1 -43 -37 -5 -21 21 -34 44 -30 51 13 24
-34 126 -83 177 -101 107 -91 240 18 240 35 0 252 203 252 235 0 27 -68 47
-130 40 -32 -4 -41 8 -46 60 -5 49 -16 65 -45 65 -49 0 -56 -115 -9 -133 40
-15 38 -100 -3 -115 -19 -8 -90 17 -172 59 -178 92 -261 61 -151 -57 47 -51
57 -77 49 -128 -7 -41 0 -72 18 -87 44 -36 35 -54 -31 -63 -64 -10 -119 52
-178 198 -15 37 -51 75 -84 90 -32 14 -58 36 -58 48 0 24 -85 68 -131 68 -16
0 -30 16 -32 35 -7 109 -16 133 -65 178 l-52 49 -21 -55 c-30 -78 -33 -138 -6
-133 34 7 93 -67 129 -161 18 -46 51 -92 75 -103 80 -37 10 -90 -119 -90 -43
0 -64 -12 -77 -45 -10 -25 -45 -67 -79 -94 -42 -35 -53 -54 -36 -65 46 -29 74
-16 74 37 0 50 3 52 83 39 156 -25 179 -125 32 -136 -83 -6 -85 -8 -95 -86 -8
-66 -20 -82 -70 -99 -33 -12 -73 -33 -88 -47 -15 -15 -49 -41 -75 -58 -33 -21
-44 -43 -36 -73 6 -24 -3 -61 -19 -83 -17 -22 -31 -29 -31 -15 -1 14 -13 25
-28 25 -15 0 -43 18 -63 40 -20 22 -55 40 -78 41 -23 0 -59 13 -81 30 -43 32
-151 40 -151 10 0 -10 18 -31 39 -46 34 -24 39 -50 38 -181 -2 -190 -26 -231
-109 -191 -86 41 -102 428 -18 449 63 16 63 16 -17 110 -51 60 -66 94 -61 139
7 54 21 87 101 224 14 24 17 61 7 95 -18 63 6 100 66 100 21 0 61 18 89 40 73
58 95 26 100 -139 5 -163 -30 -206 -99 -122 -41 52 -40 53 -80 -26 -25 -49
-26 -69 -4 -130 15 -40 27 -93 27 -117 1 -56 41 -82 41 -27 0 97 55 181 118
181 81 0 91 -25 44 -115 -77 -152 -68 -326 11 -213 15 21 41 56 59 78 17 22
39 53 49 69 11 19 49 30 108 30 50 1 91 8 91 16 0 8 -8 15 -18 15 -9 0 -22 18
-28 40 -11 42 -63 54 -84 20 -20 -33 -42 -23 -66 30 -28 60 -14 104 38 121 26
8 38 30 38 70 0 53 7 59 65 60 123 1 210 144 104 171 -67 17 -89 78 -89 246 0
109 -8 143 -39 171 -69 63 -88 151 -32 151 26 0 60 4 74 10 16 5 40 -17 59
-55 40 -81 60 -81 145 -1 67 64 137 79 188 40 30 -23 33 -107 5 -124 -48 -29
-19 -110 55 -157 92 -59 125 -40 125 70 0 78 53 158 120 180 43 15 7 77 -43
77 -36 0 -40 5 -21 24 20 20 33 20 64 0 22 -13 75 -24 119 -24 85 0 141 -75
141 -188 0 -50 -108 -152 -161 -152 -47 0 -65 -30 -49 -81 11 -34 24 -38 87
-27 131 23 168 51 203 157 18 54 49 108 70 120 20 11 65 48 98 81 47 47 79 61
149 63 60 1 95 13 108 36 16 29 78 66 118 70 6 0 22 -11 35 -27z m-1018 -21
c0 -5 -10 -32 -23 -60 -41 -89 -100 -54 -65 37 11 28 88 48 88 23z m-698 -394
c36 -68 8 -205 -55 -268 l-54 -55 -47 58 c-35 42 -45 74 -37 116 6 31 11 73
11 93 0 92 139 135 182 56z m1714 -24 c4 -19 -6 -33 -23 -33 -38 0 -60 33 -42
61 18 29 58 13 65 -28z m-1047 -487 c16 -42 -26 -108 -65 -102 -67 12 -115
122 -60 141 42 14 113 -8 125 -39z m82 -124 c29 -3 34 -110 8 -205 -16 -61
-30 -79 -55 -71 -86 24 -93 23 -100 -20 -9 -61 -58 -95 -131 -90 -58 3 -60 1
-23 -21 22 -14 43 -43 46 -65 3 -22 11 -78 17 -125 7 -47 20 -85 30 -85 9 0
17 -14 17 -31 0 -16 16 -36 35 -42 19 -7 55 -35 79 -63 33 -40 49 -46 70 -29
15 13 64 22 110 21 98 -1 128 14 112 56 -8 22 -28 28 -64 21 -154 -33 -174
-34 -206 -9 -18 14 -36 57 -40 95 -10 107 119 135 207 44 48 -49 72 -59 117
-50 54 11 171 -36 204 -82 19 -26 25 -15 47 79 16 67 27 80 69 80 65 0 83
-112 27 -173 -22 -25 -33 -65 -30 -110 3 -44 -3 -66 -16 -57 -12 7 -21 4 -21
-7 0 -10 13 -24 28 -29 27 -11 92 -122 92 -158 0 -52 -80 -101 -144 -89 -40 8
-55 6 -39 -4 20 -13 17 -20 -15 -28 -59 -16 -52 -52 13 -66 30 -6 91 -28 135
-48 128 -59 235 -87 312 -84 72 2 73 2 60 -62 -16 -76 -282 -118 -282 -45 0
18 -30 45 -67 60 -36 15 -78 42 -92 59 -14 17 -37 31 -51 31 -34 0 -86 -64
-60 -74 81 -28 83 -100 4 -104 -24 -1 -82 -3 -129 -5 -72 -2 -87 -10 -97 -50
-30 -117 -135 -43 -114 81 13 83 -26 111 -103 76 -44 -20 -46 -28 -28 -107 37
-166 -21 -317 -92 -239 -30 34 -32 60 -16 212 18 179 -1 232 -60 173 -36 -36
-91 -27 -105 17 -14 45 -40 52 -62 17 -9 -16 -5 -18 14 -7 15 8 8 -5 -16 -31
-52 -55 -61 -50 -77 42 -9 52 -7 61 9 39 17 -24 23 -17 34 36 9 45 32 75 72
96 68 35 47 88 -35 88 -52 0 -82 31 -44 45 14 6 33 9 42 7 10 -1 41 48 71 108
29 61 66 130 81 153 24 36 24 49 2 75 -38 46 -54 40 -78 -28 -22 -64 -143 -85
-143 -26 0 14 -8 26 -18 26 -10 0 -21 33 -26 74 -9 73 34 146 85 146 11 0 42
25 68 55 55 64 34 115 -37 92 -23 -8 -64 -12 -91 -10 -26 2 -68 -15 -92 -38
-36 -34 -46 -36 -55 -12 -19 50 8 109 57 121 25 7 66 39 89 72 26 37 60 60 89
60 25 0 57 14 71 30 14 17 52 30 84 30 42 0 63 11 70 38 5 21 27 43 48 48 21
6 38 28 38 50 0 28 11 38 35 34 19 -4 44 -8 56 -8z m265 -14 c90 -18 138 -188
54 -188 -29 0 -99 -98 -82 -114 6 -7 54 -12 106 -14 95 -2 96 -3 93 -67 -6
-137 -63 -156 -276 -94 -185 53 -227 167 -75 203 73 18 74 20 68 107 -7 100 8
179 34 179 9 0 45 -6 78 -12z m-936 -524 c0 -8 28 -26 62 -38 90 -35 77 -117
-18 -113 -100 5 -167 97 -111 154 19 18 67 16 67 -3z m1560 -124 c0 -11 -2
-22 -5 -25 -2 -3 11 -27 30 -54 35 -50 48 -160 20 -162 -50 -2 -87 -57 -66
-97 29 -55 -10 -56 -79 -2 -27 22 -60 39 -73 40 -13 0 -19 17 -13 41 6 22 -3
56 -20 75 -41 46 -52 148 -16 160 16 5 22 0 15 -12 -7 -11 21 -4 62 17 83 41
145 50 145 19z m-30 -500 c46 -17 52 -30 46 -95 l-6 -75 -110 7 c-126 8 -131
11 -149 97 -12 58 -9 64 43 72 102 15 123 14 176 -6z m-2574 -344 c39 -39 29
-118 -17 -130 -22 -6 -53 -41 -69 -79 -31 -74 -59 -82 -126 -36 -62 44 -55 66
31 102 95 39 95 40 68 74 -55 65 52 130 113 69z m1459 -83 c86 -86 -20 -346
-124 -306 -35 13 -41 64 -11 83 13 8 9 28 -10 56 -31 45 -41 176 -15 202 20
21 129 -3 160 -35z m554 -98 c0 -29 7 -48 15 -42 9 5 16 1 16 -10 0 -11 -11
-24 -25 -30 -15 -6 -8 -15 19 -24 64 -19 76 -72 24 -111 l-45 -33 44 -27 c94
-59 0 -131 -125 -96 -74 20 -90 52 -49 93 33 33 -10 125 -59 125 -75 0 -120
53 -74 87 45 34 100 7 82 -40 -6 -15 -4 -27 5 -27 20 0 114 126 108 145 -3 8
5 15 16 15 12 0 15 10 7 23 -8 13 -3 18 14 13 15 -6 28 -33 27 -61z m434 32
c21 -18 37 -44 37 -57 0 -13 20 -33 45 -44 60 -27 -45 -86 -153 -86 -70 0
-192 97 -192 152 0 56 209 84 263 35z m-2603 -171 c0 -19 5 -19 24 0 71 71
149 14 159 -113 7 -99 -32 -143 -125 -143 -31 0 -68 -13 -84 -29 -52 -52 -114
-17 -90 51 11 32 14 82 7 110 -8 33 -1 70 19 100 32 50 90 65 90 24z m2711
-98 c21 -34 -31 -57 -124 -58 -151 0 -207 51 -72 65 149 16 183 15 196 -7z
m-1162 -75 c31 -98 -79 -201 -145 -136 -28 29 -28 35 -1 67 17 20 37 52 43 71
17 46 88 45 103 -2z m-1348 -324 c11 -21 7 -47 -11 -73 -33 -47 -21 -66 42
-66 114 0 191 -82 91 -96 -51 -8 -184 32 -178 53 9 27 -127 143 -167 143 -24
0 -38 10 -33 24 19 58 226 69 256 15z m467 -71 c48 -18 39 -40 -28 -68 -79
-33 -144 7 -85 52 39 30 67 34 113 16z"/>
<path d="M8005 11295 c5 -14 34 -25 65 -25 31 0 60 11 65 25 6 17 -15 25 -65
25 -50 0 -71 -8 -65 -25z"/>
<path d="M8473 10598 c-22 -32 -25 -56 -11 -93 33 -88 41 -90 98 -22 59 70 54
97 -22 138 -27 15 -43 9 -65 -23z"/>
<path d="M8573 10367 c-25 -26 -14 -127 15 -127 57 0 78 55 37 99 -21 23 -44
35 -52 28z"/>
<path d="M8228 9572 c-6 -15 -44 -34 -84 -41 -197 -35 -224 -49 -224 -112 0
-67 31 -79 50 -19 14 45 87 70 149 50 68 -21 58 -146 -14 -171 -75 -26 -160
-217 -110 -245 8 -5 56 -3 105 4 100 13 91 -8 113 256 9 102 19 129 59 155 26
18 48 45 48 61 0 17 12 30 28 30 84 0 66 54 -19 57 -62 2 -94 -6 -101 -25z"/>
<path d="M7642 9273 c-22 -27 -21 -37 6 -64 18 -17 32 -38 32 -45 0 -8 39 -16
87 -18 90 -4 164 71 117 118 -36 36 -214 43 -242 9z"/>
<path d="M5640 12909 c0 -53 49 -89 121 -89 71 0 79 5 79 50 0 47 -7 50 -100
50 -55 0 -100 -5 -100 -11z"/>
<path d="M7727 12870 c28 -62 92 -59 115 5 16 42 11 45 -61 45 -75 0 -77 -1
-54 -50z"/>
<path d="M7984 12888 c30 -30 36 -30 79 0 46 32 45 32 -33 32 -72 0 -76 -3
-46 -32z"/>
<path d="M8190 12900 c7 -11 39 -20 71 -20 33 0 59 9 59 20 0 11 -32 20 -71
20 -43 0 -66 -8 -59 -20z"/>
<path d="M976 12847 c-30 -15 -105 -35 -168 -43 -137 -17 -163 -54 -48 -69 94
-13 156 -53 118 -76 -36 -22 -5 -79 43 -79 23 0 59 -9 81 -21 60 -32 77 36 20
79 -59 45 -37 95 49 111 67 12 67 13 28 52 -21 21 -39 48 -39 59 0 25 -17 23
-84 -13z"/>
<path d="M4120 12851 c0 -41 41 -61 61 -30 9 15 12 34 7 43 -17 27 -68 18 -68
-13z"/>
<path d="M7482 12777 c-90 -93 -89 -117 4 -117 103 0 184 77 152 145 -33 75
-63 69 -156 -28z"/>
<path d="M7951 12801 l-80 -34 70 -27 c38 -15 75 -31 82 -35 22 -12 41 72 23
102 -13 23 -29 22 -95 -6z"/>
<path d="M538 12776 c-2 -14 -1 -38 1 -53 6 -40 -40 -143 -63 -143 -11 0 -45
-27 -76 -60 -45 -48 -74 -60 -149 -63 -94 -4 -124 -20 -100 -58 8 -14 20 -14
37 -1 28 23 112 7 112 -22 0 -10 14 -33 32 -51 20 -20 28 -51 21 -84 -9 -45
-1 -55 58 -74 95 -29 125 7 68 80 -45 57 -44 58 67 82 51 11 55 19 48 88 -5
57 4 91 38 134 45 56 35 148 -13 118 -11 -6 -25 16 -32 50 -13 65 -45 102 -49
57z m-38 -347 c0 -19 -14 -29 -33 -25 -51 9 -57 56 -9 56 25 0 42 -13 42 -31z"/>
<path d="M1251 12763 c7 -18 18 -49 24 -68 5 -19 26 -35 46 -35 21 0 60 -23
88 -51 42 -42 67 -50 135 -45 105 8 119 46 30 83 -38 16 -84 50 -102 76 -34
47 -34 47 -64 7 -30 -40 -31 -40 -71 9 -48 58 -107 75 -86 24z"/>
<path d="M4287 12785 c-31 -20 -17 -188 17 -207 97 -54 145 -123 155 -223 0
-8 15 -15 33 -15 35 0 23 146 -17 196 -37 45 15 124 81 124 75 0 104 -33 90
-103 -15 -75 81 -188 100 -117 6 25 33 45 72 53 34 6 62 22 62 35 0 12 6 42
12 66 12 42 8 43 -110 34 -121 -10 -122 -9 -122 44 0 47 -6 51 -55 42 -58 -11
-125 15 -151 59 -17 29 -128 36 -167 12z"/>
<path d="M3078 12712 c-2 -7 -4 -23 -6 -37 -2 -16 -31 -23 -86 -20 -73 5 -84
0 -90 -40 -10 -73 -107 -78 -222 -11 -105 62 -136 67 -198 34 -39 -21 -38 -24
27 -84 73 -67 437 -101 437 -40 0 39 76 69 157 64 107 -8 150 44 95 115 -8 12
-112 29 -114 19z"/>
<path d="M7669 12630 c-5 -16 -13 -44 -18 -60 -6 -17 -35 -40 -65 -52 -143
-57 -158 -87 -55 -116 65 -18 82 -14 138 29 38 29 92 49 129 49 36 0 83 10
105 21 28 16 47 16 66 0 18 -15 62 -17 138 -5 61 10 123 10 137 1 44 -28 116
-20 116 13 0 16 -7 28 -15 25 -8 -3 -17 2 -19 11 -15 54 -68 78 -94 43 -35
-47 -125 -58 -179 -23 -38 25 -47 25 -70 0 -17 -18 -40 -23 -60 -13 -18 8 -69
15 -113 16 -67 2 -81 9 -86 46 -8 51 -41 60 -55 15z"/>
<path d="M1192 12565 c-15 -15 -16 -125 -1 -125 20 0 109 65 109 79 0 21 -94
61 -108 46z"/>
<path d="M1678 12468 c-21 -26 -27 -85 -22 -246 7 -267 12 -282 85 -282 31 0
68 -12 82 -26 30 -33 111 -1 128 50 6 18 37 39 69 46 32 7 64 30 70 50 7 22
34 40 65 44 31 3 63 24 75 49 58 117 192 139 273 45 40 -46 103 -49 137 -8 14
17 58 30 100 30 46 0 80 11 86 28 14 34 -23 72 -69 72 -20 0 -85 19 -146 41
-115 43 -172 39 -236 -16 -32 -29 -37 -26 -57 32 -30 86 -138 120 -273 85 -52
-13 -106 -25 -120 -26 -14 -2 -25 -11 -25 -21 0 -9 -9 -12 -20 -5 -11 7 -20 2
-20 -10 0 -12 -9 -17 -20 -10 -12 7 -15 21 -9 31 6 11 -11 19 -39 19 -27 0
-58 14 -68 31 -15 28 -20 28 -46 -3z m492 -148 c62 -100 -331 -245 -409 -151
-32 39 -10 71 49 71 26 0 61 14 79 31 17 18 31 26 31 19 0 -7 20 2 44 19 50
34 187 42 206 11z"/>
<path d="M3023 12486 c-128 -25 -174 -169 -73 -228 69 -40 98 -47 80 -18 -7
11 7 18 34 15 37 -4 46 5 47 45 1 28 13 71 27 96 19 36 19 53 1 75 -24 29 -32
30 -116 15z"/>
<path d="M4872 12483 c-24 -38 37 -80 87 -60 l49 19 -56 29 c-66 34 -67 34
-80 12z"/>
<path d="M8350 12467 c-21 -15 -30 -27 -20 -27 10 0 7 -11 -7 -25 -13 -13 -58
-25 -99 -25 -69 0 -74 -4 -70 -58 8 -114 91 -109 143 10 19 42 45 60 105 72
44 9 79 25 79 36 -3 34 -92 46 -131 17z"/>
<path d="M671 12461 c-26 -41 13 -121 58 -121 59 0 74 18 50 62 -26 48 -93 84
-108 59z"/>
<path d="M1384 12459 c-26 -10 -41 -28 -34 -39 7 -11 3 -20 -8 -20 -11 0 -47
-26 -80 -58 -67 -65 -167 -69 -215 -7 -24 31 -27 23 -25 -65 6 -293 -21 -430
-84 -430 -22 0 -36 8 -30 17 10 16 -70 63 -107 63 -27 0 -45 -137 -23 -175 18
-31 24 -27 46 31 31 81 83 78 93 -6 11 -104 119 -97 153 11 8 24 41 43 96 54
74 14 84 23 86 72 2 58 -9 68 -87 79 -132 19 -66 174 74 174 61 0 79 9 88 43
9 35 21 40 70 31 79 -16 100 14 96 136 -3 107 -24 124 -109 89z"/>
<path d="M7970 12396 c-57 -32 -58 -32 -36 -61 11 -14 25 -45 31 -70 16 -65
-41 -59 -66 7 -16 43 -28 50 -64 38 -25 -7 -72 -18 -105 -24 -106 -19 -135
-60 -88 -125 37 -50 38 -60 12 -137 -26 -74 -26 -85 5 -113 47 -43 127 47 141
159 8 67 19 82 70 98 146 45 171 62 190 131 28 100 -10 142 -90 97z"/>
<path d="M0 12287 c0 -15 22 -27 49 -27 72 0 80 34 11 44 -41 6 -60 1 -60 -17z"/>
<path d="M672 12191 c-64 -37 -123 -75 -130 -86 -6 -10 -28 -24 -47 -31 -19
-7 -35 -25 -35 -40 0 -47 172 -42 220 6 43 43 120 21 120 -35 0 -14 23 -25 50
-25 58 0 71 77 21 120 -26 21 -26 28 2 55 28 29 27 35 -16 68 -59 45 -46 48
-185 -32z"/>
<path d="M4105 12186 c-70 -78 -78 -105 -41 -142 13 -13 15 -24 5 -24 -10 0
-7 -8 7 -17 25 -16 9 -18 -196 -29 -141 -8 -71 -110 99 -144 169 -34 185 -78
29 -84 -54 -2 -123 -9 -154 -15 -39 -7 -59 -1 -68 21 -9 25 -15 26 -28 5 -14
-21 -17 -21 -18 -1 0 14 16 49 34 78 l35 53 -74 -12 c-41 -7 -93 -30 -116 -52
l-43 -40 59 -31 c33 -17 66 -25 72 -18 7 7 13 7 13 1 0 -7 -14 -26 -31 -44
-34 -33 -189 -44 -189 -13 0 20 -73 43 -88 27 -6 -6 -2 -26 8 -45 14 -26 8
-44 -21 -71 -24 -21 -39 -61 -39 -101 0 -36 -9 -71 -21 -78 -22 -14 62 -90 99
-90 12 0 22 -9 22 -19 0 -26 116 -86 139 -72 10 6 66 1 124 -13 59 -13 165
-23 235 -22 71 1 118 -4 106 -12 -13 -7 -26 -35 -30 -62 -4 -26 -18 -51 -31
-56 -38 -12 -4 -44 47 -44 60 0 67 11 73 127 3 68 12 92 31 84 14 -5 26 -2 26
8 0 10 -20 22 -45 27 -39 7 -37 9 10 11 30 2 55 12 55 23 0 11 14 20 31 20 17
0 26 -9 19 -20 -7 -11 2 -26 19 -32 17 -7 31 -24 31 -38 0 -26 108 -75 126
-57 6 6 16 -9 24 -31 19 -62 40 -52 108 52 60 89 51 174 -9 91 -56 -76 -174
-29 -130 52 33 62 31 63 -127 63 -118 0 -150 7 -160 33 -10 24 -29 29 -79 21
-51 -8 -71 -2 -90 29 -39 62 -72 33 -83 -75 -11 -112 -70 -127 -182 -47 -30
22 -76 39 -104 39 -62 0 -93 37 -86 102 11 95 27 104 167 90 115 -12 141 -8
227 37 123 65 191 65 250 1 25 -27 65 -50 89 -50 24 0 69 -19 102 -42 33 -23
80 -44 106 -45 28 -2 42 -13 36 -28 -14 -38 30 -30 52 9 16 29 24 30 51 8 27
-23 32 -22 32 4 0 18 10 38 23 46 13 8 18 5 11 -6 -7 -10 0 -19 16 -19 16 0
22 9 15 21 -8 12 -15 31 -16 42 -2 11 -4 30 -6 42 -2 11 -28 19 -58 17 -30 -2
-39 0 -18 5 52 13 -17 65 -87 65 -40 0 -44 -4 -20 -19 30 -20 19 -25 -50 -25
-56 0 -70 5 -70 24 0 41 -97 121 -147 121 -74 0 -70 71 8 155 51 55 75 65 151
65 90 0 91 0 84 65 -6 69 -20 73 -141 44 -46 -12 -55 -7 -55 27 0 122 -61 134
-155 30z"/>
<path d="M4952 12243 c-8 -13 -41 -23 -74 -23 -33 0 -79 -18 -103 -40 -23 -22
-57 -40 -74 -40 -18 0 -48 18 -66 40 -35 41 -124 54 -144 22 -15 -25 37 -41
90 -27 31 8 41 4 31 -12 -8 -13 8 -44 37 -71 59 -54 69 -183 12 -161 -16 6
-23 5 -16 -3 8 -8 5 -26 -6 -39 -21 -25 -6 -129 18 -126 64 8 100 -9 111 -52
7 -28 23 -45 37 -40 33 13 99 129 73 129 -11 0 -29 27 -41 59 -11 33 -31 58
-44 55 -49 -9 -37 102 15 136 90 59 121 35 126 -99 6 -167 78 -199 89 -40 15
202 -28 402 -71 332z"/>
<path d="M5200 12142 c0 -61 10 -86 42 -103 l42 -22 -44 -34 c-24 -18 -67 -52
-95 -74 l-50 -42 92 -35 c100 -38 144 -32 214 29 30 26 74 39 132 39 98 0 113
30 47 90 -34 31 -54 34 -126 17 -87 -20 -134 -1 -134 52 0 12 -8 21 -17 21
-10 0 -25 29 -35 63 -28 97 -68 96 -68 -1z"/>
<path d="M1 12086 c0 -46 9 -90 21 -97 21 -13 17 -73 -14 -199 -13 -53 -11
-57 17 -34 19 15 52 21 83 13 51 -13 52 -11 52 87 0 86 8 106 53 140 l54 39
-54 35 c-36 23 -73 31 -114 23 -50 -10 -64 -5 -79 32 -14 38 -18 31 -19 -39z"/>
<path d="M1420 12136 c-58 -49 -30 -376 31 -376 27 0 49 10 49 22 0 12 15 53
33 91 30 64 30 71 -5 110 -21 22 -47 72 -58 110 -17 59 -24 65 -50 43z"/>
<path d="M8409 12124 c5 -5 0 -27 -11 -48 -20 -38 -22 -38 -49 -3 -24 33 -28
33 -28 4 -1 -23 -13 -30 -41 -23 -26 7 -40 1 -40 -18 0 -16 -22 -40 -50 -52
-58 -27 -66 -64 -13 -64 20 0 47 -22 59 -50 17 -37 39 -50 84 -50 33 0 60 -8
60 -18 0 -25 135 -102 176 -100 19 0 24 5 11 11 -12 5 -18 27 -13 48 9 31 -2
42 -52 52 -34 6 -62 24 -62 40 0 16 -22 27 -58 27 -69 0 -110 43 -92 99 10 34
29 41 112 41 85 0 102 7 116 45 20 54 -13 84 -56 49 -17 -14 -24 -15 -17 -2 7
12 0 21 -16 21 -16 0 -25 -4 -20 -9z"/>
<path d="M2550 11996 c-22 -13 -51 -39 -65 -58 -14 -19 -53 -41 -87 -48 -44
-10 -67 -31 -82 -72 -11 -32 -27 -58 -35 -58 -8 0 -29 -36 -46 -80 l-32 -80
57 0 c65 0 95 -55 63 -115 -31 -57 -3 -79 113 -89 86 -8 109 -4 124 24 19 35
-9 80 -50 80 -11 0 -48 26 -81 58 -114 112 -128 141 -88 188 11 13 33 42 48
64 28 40 28 40 74 -2 26 -23 63 -48 82 -55 29 -10 33 -26 23 -92 -13 -79 -3
-93 57 -83 8 1 16 -29 18 -68 3 -96 5 -104 24 -123 9 -9 25 -1 35 18 11 19 33
35 49 35 43 0 36 16 -41 89 -110 103 -84 191 41 139 37 -15 70 -28 74 -28 3 0
3 36 -2 80 -7 79 -83 125 -83 51 0 -58 -74 -76 -109 -27 -50 72 -40 129 29
153 76 26 76 54 1 92 -69 36 -61 36 -111 7z"/>
<path d="M351 11962 c-17 -29 12 -144 40 -155 68 -26 77 -227 9 -227 -11 0
-20 -12 -20 -27 0 -43 -69 -93 -128 -93 -31 0 -49 -9 -42 -20 7 -11 34 -20 61
-20 29 0 49 -12 49 -29 0 -40 19 -48 141 -60 121 -13 142 -25 98 -58 -17 -12
-38 -39 -45 -59 -7 -20 -43 -48 -79 -63 -51 -22 -58 -31 -32 -41 18 -7 38 -30
43 -51 30 -116 154 -75 154 51 0 102 21 122 157 153 136 32 122 90 -20 79 -29
-3 -86 10 -127 27 -41 17 -96 31 -121 31 -26 0 -53 10 -61 23 -23 37 -26 117
-5 117 11 0 15 8 9 17 -6 9 22 18 62 19 99 4 106 16 89 147 -15 110 -89 216
-151 217 -12 0 -8 9 8 20 23 15 18 19 -24 20 -29 0 -59 -8 -65 -18z"/>
<path d="M2135 11909 c-81 -44 -68 -72 30 -65 71 5 86 14 91 51 8 54 -37 59
-121 14z"/>
<path d="M5552 11796 c-43 -42 -91 -76 -105 -76 -48 0 -29 -36 35 -68 55 -28
67 -28 105 -2 57 41 144 38 187 -6 32 -32 50 -37 101 -26 8 2 42 25 74 52 l60
48 -67 28 c-47 20 -91 23 -156 11 -101 -19 -126 -11 -126 39 -1 74 -31 74
-108 0z"/>
<path d="M1582 11815 c-47 -124 1 -171 151 -145 70 12 76 90 7 90 -19 0 -58
24 -87 52 l-52 53 -19 -50z"/>
<path d="M4365 11775 c5 -14 25 -25 45 -25 20 0 40 11 45 25 5 16 -11 25 -45
25 -34 0 -50 -9 -45 -25z"/>
<path d="M1914 11747 c-42 -42 142 -260 201 -238 96 37 43 229 -63 226 -34 -2
-76 4 -93 12 -17 8 -37 8 -45 0z"/>
<path d="M1163 11681 c-18 -52 -16 -59 23 -65 24 -3 55 -31 70 -61 22 -46 39
-55 105 -55 82 0 86 -6 80 -105 -4 -52 -1 -54 45 -33 36 16 60 16 90 0 25 -13
46 -15 53 -3 14 22 -22 48 -47 32 -10 -6 -14 6 -8 28 6 24 -8 57 -40 88 -31
31 -42 57 -30 69 30 30 -124 100 -197 89 -51 -7 -66 -1 -76 33 -19 59 -43 52
-68 -17z"/>
<path d="M188 11686 c-14 -23 -49 -34 -104 -35 -83 -1 -84 -2 -84 -76 0 -91
56 -104 108 -26 27 42 50 50 154 55 l122 6 -51 55 c-58 63 -113 71 -145 21z"/>
<path d="M5034 11705 c-5 -8 -6 -31 -3 -50 3 -19 -5 -35 -18 -35 -15 -1 -14
-7 4 -18 20 -12 16 -19 -17 -28 -24 -6 -39 -20 -32 -31 14 -23 -96 -108 -115
-89 -7 7 -13 3 -13 -9 0 -12 11 -26 25 -32 20 -8 20 -10 0 -11 -14 -1 -25 -12
-25 -23 0 -12 7 -17 15 -12 8 5 15 -19 15 -53 0 -52 -9 -64 -64 -78 -50 -13
-62 -25 -51 -51 43 -115 127 -109 154 10 10 47 28 84 40 83 64 -8 70 4 63 119
l-7 117 67 -5 c38 -3 68 3 68 14 0 11 8 14 18 8 10 -6 11 20 1 64 -20 89 -98
158 -125 110z"/>
<path d="M725 11651 c-66 -20 -81 -47 -44 -84 14 -14 7 -36 -20 -72 -52 -65
-51 -68 9 -80 55 -10 82 36 60 105 -9 30 0 45 39 63 54 25 59 35 36 67 -10 13
-37 14 -80 1z"/>
<path d="M8465 11667 c-14 -6 -25 -24 -25 -40 0 -42 88 -26 96 18 7 34 -20 42
-71 22z"/>
<path d="M831 11561 c-7 -10 2 -30 20 -45 17 -14 46 -41 65 -59 100 -99 224
-59 168 54 -35 69 -219 106 -253 50z"/>
<path d="M1691 11521 c-40 -76 -41 -74 29 -98 96 -33 207 20 177 85 -13 29
-45 53 -82 60 -89 18 -91 17 -124 -47z"/>
<path d="M5439 11554 c-17 -13 -43 -53 -57 -89 -15 -35 -34 -60 -42 -55 -8 5
-20 -12 -25 -38 -6 -32 -1 -45 16 -39 45 17 49 -51 4 -82 -50 -35 -95 -40 -95
-12 0 26 -77 -3 -79 -29 0 -11 34 -20 77 -20 43 0 85 -6 93 -14 8 -8 -5 -11
-28 -7 -23 5 -47 0 -54 -11 -6 -10 -20 -14 -29 -8 -9 6 -23 2 -29 -9 -7 -11 7
-15 33 -10 24 4 51 -3 60 -16 12 -20 15 -20 16 0 0 14 17 25 38 25 44 0 86 44
78 82 -3 15 14 36 39 47 25 11 45 30 45 42 0 13 29 48 64 79 l63 57 -61 29
c-35 16 -70 46 -79 66 -14 29 -23 31 -48 12z"/>
<path d="M5700 11462 c-73 -20 -7 -42 127 -42 142 1 182 31 62 47 -107 15
-120 14 -189 -5z"/>
<path d="M2989 11403 c-10 -32 -19 -39 -30 -21 -10 16 -23 -3 -36 -52 -31
-110 -7 -124 64 -38 58 70 90 141 53 118 -9 -6 -21 1 -27 15 -6 15 -16 6 -24
-22z"/>
<path d="M2168 11372 c-12 -33 -170 -112 -222 -112 -15 0 -37 -27 -49 -60 -12
-33 -30 -60 -42 -60 -12 0 -6 -16 12 -37 20 -22 33 -71 33 -127 0 -57 11 -101
30 -116 40 -33 38 -59 -11 -111 -52 -55 -9 -107 58 -70 62 32 126 25 136 -15
13 -47 81 -91 98 -62 19 30 -9 158 -35 158 -13 0 -17 26 -10 68 17 103 -48
158 -105 90 -53 -64 -80 -26 -81 115 0 130 27 154 149 136 70 -10 92 -7 93 14
9 100 19 144 39 169 15 18 16 28 3 28 -11 0 -35 5 -52 12 -19 7 -37 -1 -44
-20z"/>
<path d="M2300 11317 c0 -20 9 -37 19 -37 11 0 43 -25 71 -55 48 -50 54 -52
77 -21 14 18 50 39 79 47 137 34 72 96 -105 100 -125 3 -141 0 -141 -34z"/>
<path d="M36 11309 c-19 -19 6 -86 36 -97 15 -6 28 -1 28 10 0 11 8 15 18 9
24 -15 69 42 53 68 -14 22 -116 29 -135 10z"/>
<path d="M5655 11287 c-65 -35 -76 -107 -15 -107 22 0 51 -18 65 -40 25 -41
139 -56 189 -24 40 25 29 208 -12 199 -18 -3 -31 -25 -30 -50 2 -69 -50 -72
-88 -5 -38 67 -34 66 -109 27z"/>
<path d="M1180 11221 c0 -23 12 -41 28 -41 15 0 32 -18 38 -40 11 -42 63 -54
84 -20 22 35 60 22 93 -33 l32 -53 24 73 c22 66 41 83 86 75 47 -7 4 35 -53
52 -81 25 -168 13 -217 -30 -21 -18 -35 -21 -35 -8 0 13 -18 32 -40 44 -34 18
-40 15 -40 -19z"/>
<path d="M2670 11220 c-25 -40 14 -59 102 -50 102 10 134 24 117 51 -15 25
-203 24 -219 -1z"/>
<path d="M3253 11205 c-5 -8 26 -17 68 -19 43 -3 83 4 89 15 7 11 -21 19 -68
19 -44 0 -84 -7 -89 -15z"/>
<path d="M2987 11166 c-7 -20 -30 -55 -52 -79 -62 -70 -34 -162 60 -199 3 -1
0 -18 -7 -37 -10 -26 -17 -28 -29 -9 -11 18 -20 10 -30 -27 -7 -30 -29 -59
-49 -65 -20 -6 -40 -29 -46 -51 -7 -26 -27 -39 -62 -39 -44 0 -52 -9 -52 -60
0 -40 10 -60 30 -60 17 0 30 8 30 17 0 9 16 36 36 58 46 53 84 7 84 -102 0
-38 12 -78 28 -91 15 -12 33 -58 40 -102 7 -48 27 -87 51 -99 94 -51 145 -265
92 -391 -50 -120 -15 -234 83 -272 38 -14 46 -32 46 -101 0 -106 26 -85 28 23
2 62 -7 83 -36 92 -34 11 -36 26 -21 185 9 95 14 266 12 380 -3 152 4 223 26
268 31 62 45 355 18 381 -7 8 -28 2 -45 -11 -29 -22 -29 -21 -3 12 36 45 44
89 19 104 -10 6 -19 -5 -21 -25 -1 -20 -8 -1 -15 42 -17 110 -78 119 -75 11 2
-77 -25 -131 -42 -83 -6 19 -16 20 -35 4 -21 -18 -25 -11 -21 33 4 31 16 59
28 63 11 3 15 21 8 39 -9 23 -4 27 17 15 22 -12 23 -10 5 9 -14 16 -17 45 -8
78 15 52 4 75 -54 110 -16 10 -30 2 -38 -21z m117 -451 c-16 -19 -13 -44 10
-90 51 -106 3 -160 -83 -94 -38 28 -38 30 -2 56 22 16 32 40 26 58 -12 31 41
126 60 107 6 -6 1 -23 -11 -37z"/>
<path d="M53 11167 c-23 -23 -14 -47 17 -47 35 0 42 -100 9 -133 -14 -14 16
-39 95 -81 64 -33 116 -72 116 -86 0 -36 73 -59 116 -36 49 25 109 2 125 -47
17 -53 -13 -82 -84 -82 -35 0 -75 -21 -109 -57 l-54 -58 76 0 c46 0 80 11 86
28 7 16 30 23 60 18 36 -7 51 0 59 30 6 24 34 45 73 53 76 17 86 81 15 98 -33
9 -53 36 -71 93 -24 81 -39 94 -73 62 -35 -34 -159 -35 -161 -2 -5 71 -56 172
-85 166 -11 -3 -41 17 -66 44 -45 47 -115 65 -144 37z"/>
<path d="M740 11094 c-44 -22 -51 -40 -56 -150 -7 -146 7 -151 104 -44 117
130 85 261 -48 194z"/>
<path d="M3394 11107 c13 -5 19 -21 14 -36 -14 -35 82 -65 181 -57 96 9 96 9
73 68 -11 26 -20 37 -21 25 -1 -26 -201 -28 -201 -2 0 8 -16 14 -35 13 -19 0
-24 -6 -11 -11z"/>
<path d="M1064 11079 c-60 -13 -144 -83 -144 -121 0 -25 66 -54 98 -43 22 8
25 -4 16 -51 -13 -62 61 -142 105 -114 15 9 81 124 81 141 0 9 -114 51 -132
48 -52 -10 -52 6 -1 47 78 62 65 111 -23 93z"/>
<path d="M2281 11071 c-26 -31 75 -71 185 -71 62 0 96 54 52 82 -46 29 -210
21 -237 -11z"/>
<path d="M2648 11072 c-31 -82 1 -222 52 -222 55 0 97 171 55 225 -27 33 -94
32 -107 -3z"/>
<path d="M1656 11000 c23 -40 36 -50 41 -30 3 17 12 27 20 23 7 -3 29 10 48
30 34 36 32 37 -54 37 l-89 0 34 -60z"/>
<path d="M1481 10918 c-26 -11 -59 -15 -72 -11 -45 18 -79 -20 -50 -55 14 -17
33 -27 41 -22 9 5 21 -4 28 -21 6 -17 -1 -35 -18 -42 -16 -6 -25 -19 -19 -29
6 -10 2 -18 -10 -18 -11 0 -21 -12 -21 -26 0 -14 -22 -57 -50 -94 -143 -194
49 -236 216 -48 90 100 93 128 14 128 -48 0 -60 -9 -60 -42 0 -30 -9 -39 -32
-30 -17 7 -40 12 -50 12 -10 0 -18 14 -18 30 0 19 19 30 52 30 49 0 52 5 39
70 -19 101 54 95 109 -9 24 -46 26 -47 53 -11 39 55 33 97 -22 157 -54 58 -59
59 -130 31z"/>
<path d="M2370 10895 c-61 -38 -65 -49 -67 -205 -2 -183 37 -237 86 -119 17
41 31 82 31 91 0 33 55 -5 77 -53 22 -49 12 -161 -19 -200 -20 -26 6 -134 36
-144 12 -4 27 16 34 44 11 46 23 55 65 49 24 -3 46 52 47 117 0 63 -17 74
-100 69 -5 0 -10 35 -11 79 -1 46 -13 87 -29 97 -22 14 -23 31 -4 93 12 41 20
78 17 81 -21 21 -130 21 -163 1z"/>
<path d="M4495 10824 c-90 -11 -69 -64 25 -64 55 0 80 -9 80 -28 0 -39 59 -58
72 -23 15 39 2 93 -22 94 -11 1 -38 8 -60 15 -22 7 -65 10 -95 6z"/>
<path d="M1 10735 l0 -85 50 56 c63 73 63 114 -1 114 -46 0 -50 -7 -49 -85z"/>
<path d="M5127 10749 c-1 -27 8 -50 20 -51 13 -2 32 -5 43 -7 11 -3 30 -6 43
-8 12 -2 28 -25 35 -53 14 -55 36 -63 69 -24 15 19 13 48 -7 105 -16 43 -29
68 -29 54 -1 -34 -101 -32 -139 4 -28 25 -32 22 -35 -20z"/>
<path d="M842 10678 c-25 -21 -58 -38 -73 -38 -15 0 -33 -10 -41 -23 -9 -14
-5 -18 9 -9 14 9 23 -1 23 -26 0 -22 12 -47 27 -56 14 -9 32 -32 39 -51 18
-49 64 -44 89 10 20 43 128 96 255 125 l59 13 -48 37 c-37 27 -61 32 -96 18
-30 -11 -62 -10 -88 3 -68 37 -106 36 -155 -3z"/>
<path d="M35 10605 c-53 -12 -50 -145 3 -145 27 0 43 -19 52 -60 7 -33 22 -65
33 -72 26 -16 78 56 58 82 -17 22 -14 82 9 135 11 28 4 35 -34 35 -26 0 -57 7
-67 17 -10 9 -35 12 -54 8z"/>
<path d="M564 10525 c-82 -91 -8 -238 109 -216 57 11 65 6 85 -51 15 -45 30
-59 53 -50 18 6 36 12 41 12 84 0 -79 184 -195 219 -78 23 -121 81 -61 81 58
1 94 33 49 44 -24 7 -54 -8 -81 -39z"/>
<path d="M1900 10530 c-14 -16 -37 -30 -51 -30 -33 0 -41 -39 -32 -171 7 -106
7 -106 84 -119 42 -7 87 -25 99 -40 18 -22 31 -22 76 2 96 50 164 24 164 -63
0 -62 23 -74 54 -29 41 59 233 45 242 -18 9 -54 -80 -142 -144 -142 -68 0
-152 40 -152 73 0 35 -153 37 -166 2 -5 -14 -4 -70 1 -126 12 -119 -24 -169
-91 -127 -21 13 -54 19 -72 12 -48 -19 8 -100 99 -143 76 -36 91 -71 30 -71
-21 0 -44 -9 -51 -20 -7 -11 -43 -20 -81 -20 -62 0 -68 -5 -64 -55 12 -156
176 -141 262 24 20 39 49 71 64 71 73 0 96 194 28 236 -45 28 -79 101 -64 139
16 43 105 31 105 -15 0 -35 13 -40 109 -40 69 0 119 -11 138 -29 27 -28 93 29
93 79 0 38 110 112 117 79 4 -19 -7 -43 -25 -53 -73 -41 -22 -216 63 -216 106
-1 204 -143 136 -199 -24 -20 -24 -34 3 -97 17 -41 31 -102 29 -135 -1 -59 3
-62 118 -86 95 -20 119 -32 119 -63 0 -21 9 -43 20 -50 13 -8 11 -23 -5 -41
-14 -15 -36 -41 -50 -57 -13 -16 -40 -39 -60 -51 -33 -20 -33 -23 4 -51 47
-37 59 -24 69 75 3 27 71 15 115 -20 65 -53 84 -317 29 -388 l-39 -50 54 -32
c30 -18 79 -36 108 -40 53 -7 101 -35 61 -35 -12 0 -28 -40 -35 -90 -7 -49
-20 -90 -27 -90 -8 0 -40 -23 -73 -50 -68 -59 -90 -46 -98 60 -8 100 -108 199
-142 139 -12 -20 -41 -55 -65 -79 -55 -53 -32 -100 42 -86 62 12 76 -56 17
-79 -52 -20 -104 -89 -104 -140 -1 -52 22 -57 85 -16 33 21 67 24 133 12 115
-22 126 -16 177 90 24 49 57 89 74 89 22 0 30 16 26 54 -4 40 4 57 31 62 68
14 76 -25 26 -118 -27 -48 -55 -110 -63 -138 -8 -27 -35 -77 -59 -110 -25 -33
-51 -80 -59 -104 -8 -24 -29 -47 -48 -52 -19 -4 7 -7 56 -6 82 2 92 8 110 63
11 33 31 74 44 90 14 16 53 62 87 103 52 63 59 85 48 140 -8 36 -13 101 -12
143 3 107 -26 153 -98 153 -64 0 -84 67 -35 116 19 19 19 29 0 48 -13 13 -24
38 -24 56 0 17 -18 67 -40 110 -22 43 -40 115 -40 159 0 186 -66 301 -163 286
-31 -4 -57 -1 -57 7 0 8 -22 41 -49 73 -27 33 -58 97 -69 144 -10 47 -29 96
-40 107 -12 12 -22 45 -22 73 0 122 -38 194 -119 231 -72 32 -78 41 -67 94 9
47 4 60 -29 69 -23 6 -46 28 -51 49 -6 21 -27 44 -47 51 -20 7 -75 30 -121 50
-46 20 -107 37 -135 37 -69 0 -107 78 -74 151 20 45 18 52 -22 67 -59 22 -89
9 -103 -46 -19 -76 -312 -49 -312 29 0 29 14 39 55 39 98 1 116 30 49 77 -72
51 -72 51 -104 13z"/>
<path d="M1590 10473 c-24 -81 -28 -313 -5 -315 132 -12 177 40 108 122 -67
79 -68 134 -3 164 28 12 50 29 50 37 0 25 -142 17 -150 -8z"/>
<path d="M1104 10430 c-33 -71 -34 -70 56 -70 72 0 80 5 80 50 0 30 -11 50
-28 50 -16 0 -41 5 -57 11 -17 6 -37 -10 -51 -41z"/>
<path d="M2720 10422 c0 -12 -15 -22 -34 -22 -25 0 -28 -6 -12 -22 13 -13 18
-35 12 -50 -6 -16 -1 -28 10 -28 12 0 36 -6 54 -13 27 -10 32 0 26 64 -5 66
-56 130 -56 71z"/>
<path d="M248 10348 c-20 -79 -96 -149 -176 -162 -80 -13 -82 -16 -47 -93 27
-59 117 -96 131 -54 69 205 367 195 433 -14 15 -50 45 -56 120 -22 97 44 38
177 -79 177 -37 0 -79 12 -95 27 -15 15 -46 34 -70 41 -23 8 -70 45 -103 83
-73 83 -97 86 -114 17z"/>
<path d="M5086 10333 c-35 -12 -70 -30 -78 -38 -8 -8 -49 -15 -90 -15 -118 0
-183 -32 -168 -81 7 -22 3 -53 -10 -68 -30 -37 -42 -183 -19 -243 24 -63 87
-62 170 1 35 27 70 43 78 36 7 -8 8 0 1 17 -20 53 73 87 171 62 58 -14 98 -15
129 0 61 27 130 -10 130 -71 0 -94 -164 -120 -350 -55 -91 32 -185 28 -105 -5
19 -8 19 -10 -1 -11 -96 -6 72 -83 216 -99 147 -17 159 -73 41 -199 -78 -85
-80 -88 -51 -144 36 -70 39 -120 6 -120 -29 0 -116 96 -116 128 0 12 -27 48
-60 79 -58 54 -140 204 -140 254 0 15 -19 19 -55 10 -67 -17 -80 -29 -54 -47
25 -18 69 -145 69 -201 0 -53 55 -143 87 -143 36 0 135 -115 151 -175 8 -30
23 -56 33 -58 56 -8 107 -34 98 -49 -6 -10 -3 -18 7 -18 10 0 14 -22 9 -50 -5
-27 -17 -50 -25 -50 -8 0 -19 -54 -24 -120 -5 -65 -13 -124 -18 -129 -19 -19
-1027 -28 -1049 -10 -14 12 -39 3 -67 -23 -42 -40 -43 -43 -8 -69 20 -15 28
-28 19 -28 -10 -1 -7 -14 7 -31 14 -16 19 -30 11 -30 -8 0 1 -14 18 -32 25
-25 27 -39 10 -60 -34 -40 21 -94 57 -56 29 32 31 68 4 68 -11 0 -20 16 -20
35 0 77 170 104 720 112 378 6 374 7 384 -79 6 -52 1 -67 -19 -59 -18 7 -22 2
-12 -14 9 -14 16 -38 16 -53 2 -98 51 -32 51 68 0 74 10 123 30 143 17 16 30
38 30 47 0 9 -13 31 -30 47 -42 42 -38 52 30 76 37 13 60 35 60 58 0 20 8 42
18 48 30 19 39 134 9 123 -20 -8 -22 -1 -7 29 11 21 28 55 38 75 19 40 -6 103
-51 130 -15 9 -27 29 -27 45 0 15 -22 43 -50 61 -57 37 -52 108 13 179 20 23
37 55 37 72 0 17 16 49 35 72 19 22 58 77 85 122 35 58 78 94 147 124 84 36
95 48 83 85 -8 24 -18 103 -23 174 -14 185 -19 195 -74 143 -56 -52 -91 -53
-233 -3 -125 44 -183 47 -274 13z m397 -164 c65 -10 110 -47 62 -50 -8 0 -136
-4 -285 -7 -148 -3 -299 -13 -335 -22 -57 -13 -65 -10 -65 25 0 53 32 63 169
55 78 -5 141 4 197 28 69 30 90 31 131 10 27 -14 84 -31 126 -39z m-150 -976
c24 -25 24 -93 0 -93 -16 0 -33 -7 -38 -15 -5 -8 -6 -4 -2 10 3 14 -2 25 -11
25 -10 0 -22 23 -27 50 -8 44 42 58 78 23z"/>
<path d="M1348 10307 c-25 -95 -201 -157 -269 -96 -32 28 -40 27 -92 -22 -81
-75 -28 -114 129 -96 99 12 113 9 144 -33 39 -51 38 -52 69 85 10 49 21 55 91
55 91 0 99 16 35 74 -74 67 -97 73 -107 33z"/>
<path d="M3910 10297 c-44 -11 -116 -16 -160 -11 -80 8 -190 -30 -190 -66 0
-10 -27 -33 -60 -50 -58 -30 -59 -33 -28 -80 34 -53 65 -45 165 40 74 64 617
67 666 4 43 -54 139 -29 150 39 9 64 -31 85 -189 97 -79 6 -166 20 -195 30
-58 23 -51 23 -159 -3z"/>
<path d="M2890 10120 c-21 -66 8 -163 47 -156 40 8 54 98 24 155 -28 52 -55
52 -71 1z"/>
<path d="M3900 10082 c-51 -7 -88 -22 -86 -35 3 -12 -6 -22 -20 -21 -79 2
-134 -9 -158 -33 -14 -14 -53 -39 -86 -55 -46 -22 -61 -44 -66 -96 -7 -63 -5
-65 26 -35 18 18 61 33 96 33 79 0 190 65 212 124 16 44 16 44 51 -10 44 -66
90 -68 164 -7 93 76 116 76 157 1 44 -81 75 -86 107 -16 26 56 3 108 -47 108
-14 0 -36 14 -50 30 -26 31 -126 35 -300 12z"/>
<path d="M834 10010 c8 -53 3 -72 -21 -82 -46 -17 -44 -122 2 -137 54 -18 185
-148 185 -183 0 -18 -22 -50 -50 -72 -58 -45 -63 -80 -18 -118 27 -22 36 -21
57 8 14 19 45 34 68 34 24 0 63 23 87 50 24 28 65 50 91 50 26 0 42 9 35 20
-16 26 -6 25 64 -2 31 -13 92 -24 136 -25 63 -2 81 -11 86 -43 11 -71 48 -127
77 -116 35 13 38 -155 3 -190 -41 -41 -151 -30 -166 16 -22 70 -70 50 -50 -21
22 -77 -6 -159 -60 -173 -48 -13 -47 -6 -9 -83 20 -38 47 -63 71 -63 23 0 47
-20 58 -50 10 -27 32 -50 48 -50 46 0 57 70 23 151 -53 126 -29 141 73 44 109
-104 124 -74 106 209 -12 181 -21 223 -48 230 -27 7 -31 27 -22 112 8 79 18
102 40 97 68 -17 84 -10 110 52 34 79 -16 95 -75 25 -41 -48 -120 -52 -164 -9
-50 51 -21 109 57 109 22 0 58 17 81 39 22 21 66 42 97 46 30 4 55 13 55 21
-1 8 -1 23 -1 35 0 13 -15 13 -43 -2 -44 -24 -76 -1 -77 56 0 37 -29 31 -70
-15 -57 -64 -148 -53 -173 20 -29 84 -77 78 -77 -10 0 -58 7 -70 42 -70 35 0
40 -9 30 -50 -7 -27 -2 -67 12 -89 41 -66 -24 -118 -140 -111 -112 6 -178 91
-142 185 29 77 -6 106 -98 79 -96 -28 -92 -23 -53 -82 18 -29 26 -52 16 -53
-9 0 1 -16 23 -35 37 -31 42 -47 33 -119 -4 -33 -63 -33 -63 0 0 14 -23 60
-52 102 -33 49 -46 87 -36 109 24 56 20 71 -42 149 -79 99 -132 101 -116 5z"/>
<path d="M0 9723 c0 -155 5 -283 11 -283 41 0 84 46 84 91 0 60 44 115 59 74
5 -14 40 -68 78 -120 38 -52 82 -124 99 -160 32 -71 89 -88 89 -27 0 80 144
130 180 63 10 -20 18 -87 16 -148 -2 -82 6 -123 32 -151 48 -53 27 -108 -58
-153 -92 -50 -100 -81 -37 -140 68 -63 76 -62 127 21 24 39 50 66 58 61 9 -5
35 5 60 22 l44 31 -48 44 c-93 86 -67 491 33 525 39 13 38 16 -17 26 -53 10
-61 21 -66 86 -6 71 -12 77 -96 100 -68 18 -99 40 -131 94 l-41 70 -35 -43
c-20 -24 -59 -50 -89 -57 -91 -23 -78 -49 25 -49 174 0 294 -146 163 -200 -33
-14 -60 -32 -60 -41 0 -19 -81 -13 -117 9 -20 13 -19 24 7 52 43 47 -54 154
-130 143 -31 -4 -59 9 -81 38 -40 53 -79 37 -79 -34 0 -135 -44 -15 -53 144
-15 269 -27 231 -27 -88z"/>
<path d="M209 9949 c-143 -30 -134 -77 16 -85 150 -8 188 12 128 66 -40 36
-56 38 -144 19z"/>
<path d="M4368 9925 c-33 -53 22 -178 63 -144 45 37 18 179 -33 179 -5 0 -18
-16 -30 -35z"/>
<path d="M6267 9930 c-15 -40 8 -96 33 -80 26 16 26 110 -1 110 -11 0 -25 -13
-32 -30z"/>
<path d="M4070 9809 c-33 -29 -85 -57 -117 -63 -42 -9 -50 -16 -29 -28 15 -8
64 -7 107 4 43 11 89 22 102 25 44 9 85 56 74 84 -17 44 -70 35 -137 -22z"/>
<path d="M2325 9757 c-37 -37 -32 -156 7 -171 61 -23 92 94 43 161 -20 27 -31
29 -50 10z"/>
<path d="M4498 9662 c15 -10 23 -32 16 -48 -6 -17 1 -36 17 -42 18 -6 29 -39
29 -83 0 -39 8 -66 18 -60 10 6 14 40 9 76 -9 60 -8 62 18 27 24 -31 28 -32
28 -5 0 18 -15 37 -34 43 -24 8 -32 26 -25 56 7 31 4 36 -9 17 -16 -21 -22
-20 -32 5 -6 18 -23 32 -37 32 -20 -1 -19 -5 2 -18z"/>
<path d="M6221 9562 c-57 -80 -52 -95 32 -111 82 -16 106 5 107 92 0 47 -31
77 -80 77 -10 0 -36 -26 -59 -58z"/>
<path d="M5521 9535 c-19 -52 -6 -73 55 -84 51 -10 53 1 19 75 -31 66 -51 68
-74 9z"/>
<path d="M4386 9494 c-13 -46 -30 -63 -57 -60 -21 2 -45 -7 -53 -20 -11 -18
-15 -17 -16 3 0 14 -22 -1 -50 -33 -56 -67 -77 -251 -23 -207 15 13 33 17 40
9 7 -7 13 -1 13 12 0 14 30 54 66 90 64 62 104 126 97 157 -2 8 6 15 17 15 24
0 27 73 3 88 -10 6 -26 -18 -37 -54z"/>
<path d="M2480 9491 c-24 -65 -105 -85 -169 -43 -62 40 -92 0 -77 -102 10 -60
6 -64 -65 -77 -50 -10 -78 -27 -84 -54 -8 -30 -22 -36 -63 -26 -95 23 -106 21
-129 -15 -29 -45 17 -81 70 -53 39 22 119 25 165 7 46 -18 39 -83 -9 -98 -23
-8 -50 -37 -61 -66 l-20 -52 -44 52 c-69 81 -142 90 -127 15 9 -45 3 -63 -29
-80 -69 -37 -38 -88 61 -99 82 -9 92 -17 138 -105 26 -52 61 -95 76 -95 31 0
36 66 8 119 -35 65 23 116 99 87 61 -23 64 -22 92 45 36 87 38 78 -31 148 -62
63 -63 119 -4 124 18 2 47 5 63 6 17 2 45 -3 63 -12 27 -13 36 0 51 78 22 120
124 131 232 25 119 -116 163 -9 46 112 -41 42 -72 94 -72 120 0 91 -148 122
-180 39z m-60 -158 c0 -47 -53 -100 -87 -87 -38 15 -44 95 -10 129 28 28 97
-2 97 -42z"/>
<path d="M6749 9439 c-13 -21 6 -194 23 -223 12 -18 146 68 147 95 2 54 -146
165 -170 128z"/>
<path d="M940 9330 c0 -27 10 -50 22 -50 12 0 18 -11 13 -25 -5 -14 -30 -22
-57 -19 -67 8 -99 -49 -68 -122 23 -55 23 -55 59 -15 41 45 148 56 185 19 30
-30 66 -6 66 43 0 27 -14 39 -46 39 -25 0 -57 11 -70 24 -19 19 -24 18 -24 -1
0 -14 -8 -20 -18 -14 -10 6 -14 29 -8 51 6 22 1 40 -11 40 -11 0 -17 18 -13
40 4 22 -1 40 -11 40 -11 0 -19 -22 -19 -50z"/>
<path d="M5698 9350 c-1 -11 -2 -27 0 -35 1 -8 -7 -15 -18 -15 -11 0 -20 9
-20 20 0 11 -10 20 -23 20 -16 0 -19 -35 -10 -115 24 -206 24 -215 -1 -210
-13 2 -23 -11 -22 -30 0 -19 -13 -78 -30 -130 -28 -90 -28 -97 7 -115 51 -28
59 -25 59 21 0 23 15 70 34 105 43 83 85 301 72 381 -10 67 -43 137 -48 103z"/>
<path d="M4612 9289 c-38 -28 -32 -89 9 -89 12 0 16 -9 9 -20 -7 -11 0 -20 14
-20 15 0 37 -27 50 -60 15 -40 47 -71 96 -91 56 -24 68 -37 52 -57 -28 -33 48
-30 82 4 85 85 -3 264 -130 264 -11 0 -48 22 -83 48 -54 41 -67 44 -99 21z"/>
<path d="M83 9268 c-33 -24 -40 -39 -25 -54 35 -35 25 -88 -18 -100 -93 -24
-45 -296 57 -320 102 -24 110 8 22 97 l-84 85 36 61 c26 43 60 66 122 82 99
25 109 45 37 77 -29 14 -50 40 -50 64 0 48 -35 51 -97 8z"/>
<path d="M395 9202 c-78 -46 -74 -125 12 -213 93 -96 101 -89 85 76 -15 168
-24 180 -97 137z"/>
<path d="M4352 9130 c-18 -27 -47 -50 -64 -50 -27 0 -27 -4 2 -33 89 -89 303
-17 240 81 -46 70 -133 71 -178 2z"/>
<path d="M2573 9087 c-7 -8 -13 -51 -13 -97 0 -86 -21 -108 -135 -140 -74 -21
-51 -46 60 -65 131 -22 135 -20 135 78 0 129 90 105 144 -38 38 -103 40 -105
119 -105 64 0 83 -8 91 -40 14 -52 40 -51 57 2 11 37 24 41 89 30 92 -14 134
21 92 78 -28 39 -92 59 -92 29 0 -9 -32 -23 -71 -31 -78 -14 -91 -3 -181 150
-33 57 -58 75 -126 88 -46 9 -89 30 -95 45 -12 30 -51 38 -74 16z"/>
<path d="M4625 8970 c5 -28 0 -50 -12 -50 -14 0 -15 -6 0 -21 11 -11 34 -15
50 -9 40 15 24 130 -18 130 -21 0 -27 -15 -20 -50z"/>
<path d="M1166 8979 c-24 -9 -53 -35 -65 -58 -29 -53 -93 -53 -121 0 -29 53
-56 34 -52 -38 6 -127 136 -171 203 -68 20 30 49 65 64 76 48 35 24 107 -29
88z"/>
<path d="M3900 8934 c0 -55 27 -72 51 -32 8 12 -1 36 -19 54 -29 30 -32 28
-32 -22z"/>
<path d="M266 8870 c-37 -77 -13 -123 51 -100 14 6 38 10 52 10 52 0 46 54
-11 108 l-57 55 -35 -73z"/>
<path d="M7084 8856 c-17 -17 -17 -30 -1 -50 28 -34 50 -33 64 3 15 40 -33 77
-63 47z"/>
<path d="M1251 8815 c23 -75 50 -95 131 -95 81 0 105 29 41 49 -21 7 -54 30
-73 52 -52 57 -117 53 -99 -6z"/>
<path d="M745 8705 c-48 -49 -58 -95 -25 -115 11 -7 20 -43 20 -81 0 -84 -33
-89 -116 -19 -33 28 -69 50 -81 50 -12 0 -49 41 -83 90 -34 50 -69 90 -79 90
-28 0 -153 -58 -127 -59 14 -1 39 -28 56 -61 17 -33 53 -65 80 -72 54 -13 79
-67 73 -161 -3 -48 5 -65 38 -73 53 -14 99 2 99 34 0 44 106 91 150 67 22 -13
68 -21 101 -18 89 6 174 -106 132 -173 -20 -31 -54 2 -66 64 -13 69 -54 58
-68 -17 -17 -91 16 -140 72 -106 29 19 45 16 76 -13 53 -47 112 -27 143 49 14
32 38 59 54 59 16 0 26 11 21 25 -5 14 -18 25 -30 25 -56 0 -185 133 -185 191
0 54 6 59 70 59 39 0 70 -9 70 -20 0 -11 23 -40 50 -64 28 -24 50 -64 50 -88
0 -60 36 -80 74 -43 47 47 -2 185 -77 216 -38 16 -57 38 -57 68 0 59 -45 116
-97 124 -31 5 -43 -4 -43 -32 0 -21 -18 -44 -39 -51 -21 -6 -44 -29 -51 -49
-36 -114 -130 -88 -130 36 -1 103 -22 122 -75 68z"/>
<path d="M1580 8640 c-16 -10 -61 -18 -100 -17 -136 3 -184 -32 -95 -70 47
-19 92 -25 117 -16 59 22 238 -5 259 -38 14 -23 24 -21 57 10 40 36 42 35 78
-9 43 -53 84 -39 84 26 -1 77 -31 97 -172 115 -175 23 -192 22 -228 -1z"/>
<path d="M2310 8632 c-93 -51 -94 -53 -59 -107 31 -46 31 -52 2 -69 -23 -12
-28 -34 -20 -77 10 -51 6 -59 -32 -59 -34 0 -43 10 -38 45 14 106 -55 125
-111 30 -43 -71 -43 -123 0 -184 33 -46 37 -143 8 -161 -12 -7 -15 -23 -7 -34
8 -13 4 -16 -9 -9 -12 8 -32 -4 -44 -27 -18 -34 -14 -44 28 -63 145 -66 56
-154 -95 -93 -57 22 -132 49 -168 59 -87 25 -84 78 7 147 89 68 68 93 -65 77
-91 -11 -105 -19 -134 -79 -35 -74 -56 -83 -91 -40 -17 21 -42 23 -98 10 -128
-30 -196 -22 -228 25 -60 91 -87 19 -45 -123 14 -50 -186 -28 -202 22 -14 47
-112 52 -149 8 -14 -16 -19 -30 -12 -30 7 0 4 -17 -7 -38 -21 -39 -114 -34
-184 10 -15 9 -40 19 -55 21 -28 4 -66 50 -53 63 4 4 24 -1 44 -12 42 -22 112
-14 192 21 65 29 69 46 15 75 -22 12 -40 38 -40 57 0 63 -24 63 -82 1 -31 -34
-66 -56 -77 -49 -10 7 -34 -11 -52 -38 -70 -106 -156 -56 -132 76 22 118 -4
138 -50 38 -58 -125 -135 -145 -173 -45 -49 129 -112 12 -88 -164 12 -88 38
-115 111 -116 26 0 62 -18 80 -39 41 -48 119 -51 1079 -42 586 5 690 2 720
-24 19 -16 87 -35 151 -41 80 -8 132 -25 162 -53 31 -29 70 -41 134 -41 64 0
101 -11 125 -38 19 -21 59 -44 88 -52 30 -7 69 -27 88 -44 38 -34 215 -20 238
18 8 13 32 8 64 -13 80 -53 169 -46 227 17 38 40 61 50 94 40 23 -8 54 -14 68
-14 14 -1 25 -16 25 -35 0 -38 39 -59 110 -59 26 0 53 -8 59 -18 6 -10 35 -24
66 -31 30 -8 71 -32 91 -53 19 -21 62 -38 93 -38 32 0 74 -16 93 -35 29 -29
80 -36 302 -42 146 -3 266 -8 267 -10 0 -1 6 -39 12 -83 24 -175 126 -204 127
-36 0 117 17 126 242 126 125 0 143 5 152 40 8 31 27 40 84 40 51 0 80 12 97
40 14 22 47 40 74 40 56 0 116 24 201 80 95 62 113 68 132 38 30 -48 20 -116
-22 -138 -22 -12 -45 -44 -52 -72 -16 -62 -57 -79 -238 -97 -77 -8 -148 -22
-157 -31 -24 -22 4 -64 31 -47 14 8 16 4 8 -10 -8 -13 -24 -18 -35 -11 -13 8
-12 -4 2 -30 12 -23 18 -43 12 -44 -26 -7 -43 -12 -74 -26 -19 -8 -47 -17 -63
-19 -17 -3 -46 -18 -66 -34 -31 -26 -34 -25 -19 1 10 17 -4 11 -31 -12 -26
-23 -61 -48 -78 -55 -16 -8 -57 -31 -90 -52 -72 -46 -98 -50 -84 -15 16 42
-57 79 -86 44 -13 -16 -18 -37 -12 -47 6 -10 -4 -17 -22 -16 -28 3 -34 -18
-36 -127 -2 -137 -32 -220 -81 -220 -43 0 -35 -42 11 -54 22 -6 41 -16 43 -23
1 -7 5 -31 8 -53 3 -22 22 -73 42 -114 30 -59 35 -102 27 -214 -7 -97 -2 -152
15 -175 47 -65 -9 -150 -105 -158 -153 -13 -249 -13 -305 -1 -167 38 -176 -34
-34 -291 16 -29 29 -66 29 -81 0 -15 18 -63 40 -106 22 -43 40 -103 40 -133 0
-84 20 -117 73 -117 33 0 54 -16 68 -52 19 -51 238 -276 311 -321 31 -18 33
-28 13 -49 -38 -39 -30 -62 15 -48 50 16 195 -48 205 -90 18 -81 119 193 122
330 4 168 -71 223 -83 60 -13 -182 -60 -150 -63 43 -1 120 71 177 157 124 70
-44 105 10 79 123 -21 92 5 283 46 333 43 54 45 227 2 285 -39 52 -57 195 -47
377 4 87 59 49 72 -50 19 -145 29 -185 48 -185 35 0 62 128 62 289 0 102 9
172 25 188 13 13 30 98 37 189 7 91 27 194 45 229 20 39 33 112 33 189 0 130
46 197 164 241 24 9 36 41 40 109 4 64 14 94 31 91 30 -6 30 -3 26 315 -4 316
-30 404 -80 273 -31 -82 -201 -206 -301 -219 -49 -7 -123 -30 -164 -51 -56
-28 -122 -39 -266 -41 -151 -3 -206 -12 -256 -43 -65 -40 -136 -50 -162 -24
-8 8 -104 14 -214 15 -110 0 -206 9 -214 20 -8 11 -27 22 -44 23 -16 2 -81 10
-144 17 -172 19 -219 65 -204 197 27 229 -144 106 -180 -129 -14 -96 -51 -176
-52 -113 0 21 -15 35 -38 35 -21 0 -63 33 -95 72 -31 40 -82 101 -112 135 -30
35 -55 73 -55 86 0 12 -20 27 -43 34 -86 22 -108 -36 -25 -68 74 -28 48 -68
-50 -75 -88 -7 -127 -47 -85 -89 56 -56 -30 -111 -88 -58 -31 29 -126 45 -139
23 -22 -35 -88 -22 -112 23 -64 120 -149 175 -281 181 l-127 6 0 76 c0 60 -10
80 -50 100 -71 36 -82 194 -13 194 46 0 113 73 113 122 1 85 24 138 60 138 51
0 93 55 63 85 -13 13 -23 43 -23 68 0 56 -19 67 -70 39z m898 -1115 c-6 -9
-23 -17 -39 -17 -30 0 -40 62 -15 88 19 18 69 -48 54 -71z m1520 -146 c154 15
188 -6 127 -77 -43 -51 -112 -78 -85 -34 7 11 -1 20 -18 20 -19 0 -26 11 -20
29 9 22 0 27 -35 19 -136 -30 -198 -32 -231 -6 -29 24 -31 24 -17 0 13 -22 6
-25 -35 -15 -29 8 -89 5 -133 -5 -53 -11 -81 -11 -81 2 0 11 -27 17 -60 12
-55 -8 -58 -6 -29 25 25 28 67 34 230 34 110 0 206 5 213 12 7 7 23 4 36 -7
14 -12 74 -16 138 -9z m712 -510 c0 -20 -17 -57 -38 -84 -21 -27 -53 -99 -71
-161 -43 -148 -52 -153 -271 -160 -185 -6 -188 -7 -223 -66 l-35 -61 204 14
c205 14 254 3 254 -55 0 -73 -396 -99 -439 -29 -15 24 -26 25 -67 3 -123 -66
-212 62 -120 173 20 25 52 67 72 95 20 27 53 50 74 50 21 0 43 9 50 20 15 25
245 140 279 140 14 0 46 18 71 40 25 22 52 40 59 40 8 0 31 17 53 37 73 68
148 70 148 4z m-644 -781 c-10 -123 7 -195 44 -186 22 6 40 1 40 -11 0 -12 13
-17 28 -11 16 6 23 27 18 49 -12 45 44 108 77 87 13 -8 18 -6 11 5 -6 10 5 29
25 42 31 19 39 16 47 -16 6 -21 3 -43 -5 -48 -8 -5 -9 -50 -1 -99 35 -232
-105 -360 -200 -182 -20 38 -22 62 -7 86 19 30 12 33 -65 27 -128 -10 -192
155 -116 301 l33 63 36 -48 c20 -26 36 -53 35 -59z m60 -486 c4 -50 -7 -98
-36 -144 -27 -43 -41 -96 -38 -144 7 -139 -2 -186 -40 -224 -26 -26 -39 -75
-45 -169 -5 -72 -13 -136 -18 -140 -24 -24 -117 16 -136 59 -12 26 -39 48 -59
48 -52 0 -84 39 -84 102 0 68 59 304 79 318 9 6 26 57 40 115 24 99 61 134 91
85 24 -38 50 -20 50 35 1 70 19 98 81 123 82 33 108 18 115 -64z m304 -164 c0
-16 1 -37 2 -44 0 -8 -9 -18 -20 -22 -12 -4 -22 16 -22 44 0 29 9 52 20 52 11
0 20 -13 20 -30z m-244 -160 c-1 -38 -10 -70 -19 -70 -9 0 -17 32 -17 70 0 39
9 70 19 70 11 0 19 -31 17 -70z"/>
<path d="M4560 5099 c0 -36 8 -56 20 -49 11 7 20 34 20 61 0 27 -9 49 -20 49
-11 0 -20 -28 -20 -61z"/>
<path d="M2623 8584 c-80 -83 -74 -137 21 -193 36 -21 71 -43 76 -49 109 -125
218 -96 161 43 -35 85 -53 93 -71 34 -8 -23 -24 -38 -37 -34 -35 12 -40 125
-6 152 40 33 19 97 -34 107 -31 6 -64 -12 -110 -60z"/>
<path d="M87 8563 c18 -20 33 -46 33 -58 0 -13 9 -28 20 -35 12 -7 20 16 20
59 0 64 -6 71 -53 71 -50 0 -51 -2 -20 -37z"/>
<path d="M5483 8542 c-36 -27 -44 -47 -33 -81 10 -32 1 -58 -32 -93 -25 -26
-34 -48 -21 -48 32 0 29 -111 -5 -145 -15 -15 -46 -63 -69 -106 -23 -44 -78
-115 -123 -158 -77 -75 -79 -81 -45 -113 49 -47 165 -71 165 -33 0 15 17 46
38 68 73 79 155 289 173 444 3 25 11 52 17 58 6 6 -4 22 -22 35 -29 21 -30 33
-8 86 39 94 24 131 -35 86z"/>
<path d="M273 8447 c-19 -20 -16 -123 4 -135 19 -12 63 72 63 119 0 30 -43 40
-67 16z"/>
<path d="M1520 8420 c0 -12 25 -32 55 -45 30 -14 69 -42 86 -62 34 -41 188
-52 224 -16 40 40 -1 83 -79 84 -42 0 -93 13 -115 30 -44 33 -171 40 -171 9z"/>
<path d="M4915 8366 c-19 -5 -35 -21 -35 -37 0 -16 12 -23 28 -17 29 11 64
-58 55 -107 -3 -14 6 -25 18 -25 13 0 19 16 14 37 -5 20 3 53 17 73 20 27 22
44 5 63 -22 27 -39 30 -102 13z"/>
<path d="M2420 8294 c0 -53 77 -128 145 -143 25 -5 66 -13 91 -19 56 -12 73
22 45 95 -15 41 -33 53 -79 53 -33 0 -73 14 -89 30 -48 48 -113 38 -113 -16z"/>
<path d="M1365 8223 c-51 -32 -47 -102 6 -115 27 -7 49 -20 49 -30 0 -10 11
-18 23 -18 13 0 18 6 11 13 -8 7 -4 25 8 40 56 67 -24 157 -97 110z"/>
<path d="M8938 8187 c-26 -28 -78 -65 -115 -81 -55 -23 -62 -33 -42 -57 19
-23 18 -29 -9 -29 -17 0 -31 -7 -30 -15 6 -37 -5 -63 -52 -113 -50 -54 -69
-152 -30 -152 12 0 29 20 38 45 18 47 109 135 140 135 99 0 49 -151 -93 -285
-25 -23 -45 -55 -45 -70 0 -19 -18 -25 -60 -18 -33 5 -56 2 -50 -6 11 -18
-122 -170 -361 -413 -175 -177 -249 -259 -249 -273 0 -6 -35 -48 -78 -95 -116
-127 -131 -200 -73 -364 28 -81 38 -137 26 -141 -11 -4 -24 -46 -29 -94 -5
-48 -26 -122 -47 -164 -22 -43 -39 -116 -39 -171 -1 -122 -18 -186 -50 -186
-18 0 -26 -53 -28 -191 -3 -144 -13 -206 -41 -255 -30 -51 -38 -109 -39 -284
-3 -312 -22 -491 -54 -503 -14 -6 -32 -51 -40 -100 -14 -100 -51 -127 -114
-88 -23 14 -116 31 -207 36 -91 6 -161 18 -155 28 6 9 1 17 -11 17 -11 0 -21
-9 -21 -20 0 -11 -13 -20 -30 -20 -16 0 -30 9 -30 20 0 11 -13 20 -30 20 -16
0 -30 -10 -30 -22 0 -16 -9 -15 -30 2 -21 17 -30 18 -30 2 0 -37 -114 -26
-131 13 -8 19 -14 42 -12 50 11 53 -74 192 -104 170 -4 -3 -22 8 -41 23 -40
34 -323 38 -437 6 -48 -13 -75 -14 -75 -1 0 11 -11 12 -25 4 -14 -9 -34 -17
-45 -19 -11 -2 -54 -10 -95 -18 -73 -14 -107 12 -50 38 14 6 5 7 -20 0 -27 -6
-45 -2 -45 12 0 12 -9 17 -20 10 -11 -7 -20 -3 -20 8 0 11 -14 16 -30 9 -23
-8 -27 -2 -18 26 9 29 7 31 -8 9 -11 -16 -17 -38 -13 -50 5 -12 -27 -48 -69
-79 -54 -40 -81 -77 -88 -120 -12 -79 -8 -83 60 -56 31 12 187 32 346 45 160
12 296 32 303 43 14 22 290 55 332 40 55 -20 17 -152 -71 -244 -63 -66 -120
-64 -232 10 -57 37 -70 36 -492 -10 -104 -11 -221 -25 -260 -31 -99 -15 -135
12 -104 80 13 28 24 95 24 148 0 53 19 149 41 214 23 65 44 168 47 228 4 61
24 155 45 210 l39 100 182 21 c100 11 195 32 211 45 17 14 105 30 198 37 92 7
203 28 247 47 44 19 155 41 247 48 235 19 274 50 289 236 7 77 25 155 40 173
16 18 34 68 41 111 6 43 30 97 52 121 44 47 52 104 20 151 -17 26 -23 26 -46
-4 -14 -19 -70 -44 -124 -56 -53 -12 -109 -32 -123 -44 -14 -11 -78 -33 -141
-47 -63 -14 -151 -40 -195 -57 -44 -16 -105 -31 -136 -31 -30 -1 -76 -14 -100
-30 -25 -16 -99 -35 -164 -43 -66 -7 -138 -24 -160 -37 -22 -14 -93 -32 -157
-40 l-117 -14 13 106 c8 63 29 120 49 137 26 23 35 63 36 154 2 156 17 182 73
129 141 -130 511 37 569 257 35 134 -38 228 -87 111 -16 -39 -41 -71 -54 -71
-29 -1 -215 -175 -215 -202 0 -54 -131 -16 -159 47 -16 36 -41 78 -57 94 -25
25 -22 31 19 46 26 9 81 40 122 69 42 29 110 54 154 57 93 7 203 80 186 124
-24 63 -323 1 -428 -89 -46 -40 -65 23 -47 152 9 68 5 101 -14 117 -61 51 -75
1 -101 -385 -3 -33 -12 -65 -21 -72 -28 -20 -53 -161 -54 -302 0 -73 -8 -139
-18 -145 -10 -6 -23 -40 -29 -76 -6 -36 -17 -93 -24 -126 -14 -68 42 -211 113
-286 22 -24 31 -43 20 -43 -23 0 -34 -36 -52 -165 -22 -162 -61 -117 -53 61 8
172 -23 237 -87 184 -24 -20 -27 -57 -17 -193 12 -153 9 -174 -30 -227 -32
-43 -43 -87 -43 -168 0 -108 -31 -212 -63 -212 -9 0 -8 -22 3 -49 10 -27 11
-54 2 -60 -10 -6 -24 -62 -32 -126 -7 -63 -31 -152 -51 -198 -21 -45 -44 -121
-51 -170 -7 -48 -22 -98 -33 -112 -16 -20 371 -25 1923 -25 l1942 0 0 2080 c0
1144 -3 2080 -7 2080 -3 0 -28 -24 -55 -53z m-134 -762 c-16 -6 -18 -19 -5
-43 11 -21 11 -46 0 -63 -24 -37 -24 -65 -1 -50 15 9 16 -25 2 -69 -6 -18 3
-223 11 -266 13 -64 -12 -134 -48 -136 -22 -1 -24 -5 -7 -12 21 -8 21 -16 1
-40 -21 -25 -20 -35 4 -53 40 -32 46 -74 8 -60 -26 10 -30 -2 -21 -74 10 -94
-16 -168 -55 -153 -15 6 -26 -10 -29 -38 -2 -27 5 -48 16 -48 11 0 20 8 20 19
0 22 120 9 145 -16 33 -33 7 -132 -40 -153 -25 -11 -45 -31 -45 -45 0 -30 -33
-33 -50 -5 -20 33 -47 23 -82 -30 -24 -37 -27 -57 -11 -77 12 -14 25 -45 29
-69 9 -64 28 -73 53 -26 12 23 16 42 8 42 -8 0 -4 11 9 24 13 13 24 42 24 65
1 32 8 27 33 -24 21 -43 27 -82 16 -120 -9 -30 -15 -60 -13 -67 1 -6 -11 -11
-27 -11 -16 0 -29 7 -29 16 0 35 -35 15 -56 -33 -23 -49 -6 -63 61 -52 8 1 15
-13 15 -31 0 -29 5 -29 43 5 l43 38 -14 -58 c-8 -33 -32 -81 -54 -109 -38 -49
-38 -50 -1 -91 49 -54 66 -146 30 -160 -15 -6 -27 -24 -27 -39 0 -16 -13 -34
-30 -40 -16 -6 -27 -5 -25 3 5 15 -12 24 -45 24 -12 0 -12 -18 0 -51 11 -28
12 -46 2 -40 -10 6 -23 -3 -29 -19 -7 -17 -30 -30 -52 -30 -23 0 -41 -11 -41
-26 0 -27 -58 -81 -98 -90 -26 -5 -14 65 19 106 8 11 22 54 29 95 8 41 23 69
33 63 11 -7 13 11 5 43 -9 37 -5 63 14 78 45 35 84 115 63 129 -10 6 -17 32
-15 56 2 27 -5 39 -18 32 -12 -7 -6 5 13 28 47 52 28 98 -39 95 -92 -4 -138
-84 -152 -260 -6 -85 -20 -161 -31 -167 -32 -20 -57 -104 -60 -202 -2 -61 -14
-98 -38 -114 -97 -68 -98 -75 -10 -87 46 -6 100 -26 119 -44 20 -17 71 -38
114 -46 46 -9 81 -28 86 -47 6 -25 27 -31 87 -25 94 9 102 38 19 69 -39 15
-60 37 -60 63 0 23 -6 74 -13 114 -10 63 -6 75 33 87 55 17 79 -15 80 -105 0
-52 8 -65 40 -65 32 0 40 13 40 69 0 80 23 101 80 71 l40 -21 -43 -85 c-38
-74 -40 -94 -20 -169 31 -116 31 -116 -38 -166 -41 -29 -68 -37 -85 -24 -13
11 -49 25 -79 33 -30 7 -55 20 -55 29 0 30 -130 -3 -156 -40 -35 -49 -97 -47
-178 8 -66 45 -77 79 -67 202 3 37 -11 71 -39 97 -26 24 -39 56 -34 78 6 20
-3 47 -18 60 -23 19 -28 9 -30 -55 -2 -42 -5 -117 -8 -167 -3 -55 9 -118 30
-160 34 -67 34 -73 -2 -140 -21 -38 -38 -95 -38 -126 0 -69 -55 -180 -81 -163
-10 6 -19 3 -19 -8 0 -21 -271 -19 -293 3 -27 28 -11 316 19 351 29 32 55 215
60 413 1 55 9 105 18 111 8 6 18 30 22 54 3 24 13 50 20 58 19 19 18 72 -1 60
-8 -5 -15 17 -15 49 0 33 11 58 25 58 18 0 25 43 25 151 0 102 10 166 31 198
21 31 24 52 10 60 -27 17 -28 151 -1 151 13 0 16 41 7 110 -12 102 -9 110 35
127 56 21 94 7 55 -21 -22 -16 -22 -18 2 -11 19 5 30 36 32 82 2 48 -4 66 -14
49 -10 -15 -16 29 -14 109 1 74 11 135 21 135 10 0 13 8 7 19 -6 10 -3 24 9
31 11 7 20 30 20 51 0 22 9 39 19 39 11 0 33 25 49 55 16 30 52 79 81 109 28
30 51 64 51 75 0 12 16 21 36 21 44 0 184 120 184 157 0 14 30 54 67 89 36 35
83 89 102 119 20 30 44 55 53 55 10 0 36 18 59 41 22 22 51 34 64 26 17 -11
17 -16 -1 -22z m-2004 -1564 c0 -10 -9 -24 -19 -30 -11 -7 -19 -37 -18 -67 4
-190 -27 -236 -172 -255 -41 -5 -89 -17 -107 -27 -19 -10 -70 -22 -114 -29
-45 -6 -106 -20 -135 -31 -30 -12 -83 -15 -118 -8 -45 9 -59 6 -49 -11 8 -13
3 -24 -12 -25 -125 -11 -159 -10 -168 5 -6 10 -30 4 -54 -13 -23 -16 -57 -30
-73 -30 -27 1 -28 3 -1 20 18 11 20 20 6 20 -16 0 -18 17 -6 58 9 33 13 63 8
68 -5 4 4 32 19 61 15 29 33 47 39 40 7 -7 25 -3 39 8 14 11 57 25 95 31 39 6
133 30 210 55 77 24 174 45 215 46 41 1 75 8 75 15 0 7 37 18 83 24 46 6 107
29 135 51 55 43 122 56 122 24z m1836 -1345 c13 -13 24 -54 24 -90 0 -60 5
-66 60 -66 69 0 140 -61 140 -120 0 -45 -204 -62 -230 -19 -8 11 -42 15 -80 8
-66 -13 -67 -12 -74 64 -9 116 -153 78 -200 -53 -9 -24 -16 -25 -37 -5 -15 14
-43 25 -63 25 -63 0 -49 136 16 161 65 25 168 30 212 11 25 -11 41 0 65 46 34
66 119 86 167 38z"/>
<path d="M8049 6148 c1 -30 14 -59 31 -65 43 -14 77 -66 69 -107 -4 -24 6 -36
31 -36 21 0 43 -9 50 -20 7 -12 23 -14 36 -6 14 8 12 -1 -3 -20 -24 -29 -23
-34 5 -34 29 0 41 -23 34 -65 -1 -8 12 -15 29 -15 37 0 31 60 -9 92 -20 15
-24 43 -15 90 7 37 6 59 -2 48 -19 -25 -107 -39 -103 -16 10 59 -3 90 -30 68
-21 -18 -30 -16 -39 7 -6 17 -28 31 -47 31 -26 1 -29 5 -11 16 20 13 20 24 -1
52 -24 32 -26 30 -25 -20z"/>
<path d="M1890 8100 c-16 -26 40 -48 81 -32 40 15 18 52 -31 52 -21 0 -43 -9
-50 -20z"/>
<path d="M2720 8109 c0 -32 45 -89 71 -89 16 0 29 -9 29 -20 0 -29 55 -25 65
5 15 45 -8 91 -52 103 -55 15 -113 15 -113 1z"/>
<path d="M3873 8047 c-53 -54 116 -260 194 -235 27 9 34 5 22 -13 -10 -17 -7
-20 9 -10 14 8 35 2 48 -15 35 -44 134 -63 134 -25 0 18 -28 34 -70 42 -38 8
-70 22 -70 32 0 24 -210 237 -235 237 -10 0 -24 -6 -32 -13z"/>
<path d="M2600 7917 c0 -112 79 -212 128 -162 9 8 21 15 29 16 103 8 134 78
48 111 -30 11 -68 32 -85 47 -67 57 -120 52 -120 -12z"/>
<path d="M8250 7800 c-7 -11 -16 -40 -21 -65 -4 -25 -26 -57 -49 -72 -91 -62
27 -217 156 -205 15 1 21 11 14 22 -7 11 4 45 25 75 20 30 36 75 34 100 -2 25
4 45 14 45 48 0 95 67 63 90 -36 26 -126 16 -126 -15 0 -11 -22 -5 -49 12 -30
20 -54 25 -61 13z"/>
<path d="M1790 7567 c-33 -5 -82 -13 -108 -19 -54 -12 -255 -215 -275 -278 -7
-22 -36 -64 -65 -95 -30 -31 -56 -87 -62 -130 -12 -87 -102 -114 -117 -35 -4
22 -20 54 -35 71 -15 18 -34 63 -41 100 -7 38 -30 90 -50 117 -20 26 -37 72
-37 102 0 39 -20 70 -68 107 l-68 52 -22 -62 c-27 -76 -27 -82 -4 -68 35 21
67 -49 56 -120 -10 -62 -6 -73 38 -90 44 -16 48 -27 37 -87 -11 -57 -5 -74 29
-95 23 -15 42 -35 42 -45 0 -9 28 -62 61 -117 54 -87 58 -103 33 -132 -43 -50
-51 -112 -22 -165 15 -26 27 -37 27 -23 1 14 13 25 27 25 38 0 94 107 94 179
0 75 34 147 61 130 10 -6 19 0 19 13 0 14 6 19 13 11 20 -19 87 89 87 139 0
22 22 62 49 87 28 26 46 53 41 61 -5 8 32 51 81 96 49 46 89 92 89 104 0 11
10 20 21 20 12 0 15 -10 8 -22 -10 -16 -3 -16 26 -1 22 12 45 17 52 12 7 -5 9
-3 3 4 -10 15 67 87 93 87 10 0 6 18 -8 40 -13 22 -29 39 -35 37 -5 -2 -37 -6
-70 -10z"/>
<path d="M6583 7488 c-37 -15 -85 -28 -105 -28 -21 0 -39 -7 -40 -15 0 -8 -4
-32 -8 -52 -6 -31 1 -34 47 -20 145 44 392 17 464 -51 174 -163 223 -216 251
-274 17 -35 48 -81 69 -104 21 -23 39 -54 39 -68 1 -14 32 -88 70 -163 39 -76
70 -149 70 -162 0 -14 15 -55 33 -91 l33 -66 28 53 c15 29 36 53 47 53 79 0
69 131 -15 187 -47 31 -86 69 -86 83 0 15 -12 39 -27 54 -53 53 -133 196 -133
237 0 39 -36 82 -255 305 -93 94 -191 138 -296 131 -44 -2 -89 1 -100 7 -11 7
-50 0 -86 -16z"/>
<path d="M533 7487 c-21 -21 -15 -127 7 -127 11 0 20 32 20 70 0 72 -4 80 -27
57z"/>
<path d="M8060 7450 c-10 -27 -27 -50 -38 -50 -10 0 -47 -52 -83 -115 -35 -63
-76 -122 -90 -130 -14 -8 -32 -43 -39 -76 -8 -34 -26 -67 -42 -72 -15 -6 -28
-24 -28 -39 0 -15 -12 -28 -27 -28 -54 0 -118 -91 -84 -119 17 -14 31 -52 31
-83 0 -32 7 -58 15 -57 15 0 125 164 125 187 0 6 16 29 35 51 19 21 53 62 75
92 22 29 54 68 71 86 108 114 192 307 165 377 -17 43 -66 29 -86 -24z"/>
<path d="M6116 7324 c-52 -52 -130 -125 -173 -164 -43 -38 -74 -77 -70 -85 16
-26 103 -16 134 15 17 17 39 30 49 30 11 0 30 14 44 30 35 42 87 -1 71 -59
-27 -91 -27 -108 4 -120 57 -22 83 30 66 135 -13 85 -10 100 29 131 91 71 80
184 -17 182 -24 0 -85 -42 -137 -95z"/>
<path d="M0 7312 c0 -94 34 -141 94 -127 20 4 74 -14 121 -41 64 -36 92 -43
112 -26 15 12 33 15 41 7 8 -8 24 1 35 21 11 19 27 30 37 24 27 -16 40 18 19
51 -13 21 -18 22 -19 3 0 -19 -10 -20 -41 -4 -22 12 -35 31 -28 41 6 10 -8 19
-31 19 -29 0 -37 8 -27 25 11 19 7 20 -14 4 -32 -24 -40 -24 -134 -1 -36 8
-65 22 -65 30 0 9 -23 26 -50 38 -49 23 -50 22 -50 -64z"/>
<path d="M7350 7360 c-19 -30 6 -58 49 -55 30 3 34 11 19 39 -22 40 -49 46
-68 16z"/>
<path d="M3446 7302 c-9 -7 -17 -63 -18 -126 0 -66 -13 -128 -30 -149 -24 -29
-24 -32 0 -18 21 13 24 10 11 -10 -25 -42 -24 -123 3 -189 14 -34 31 -133 38
-220 8 -88 22 -169 31 -181 9 -11 26 -88 37 -170 11 -82 25 -171 32 -199 7
-27 17 -72 22 -100 6 -27 46 -112 89 -187 44 -75 74 -146 67 -156 -17 -28
-440 -15 -546 17 -49 14 -162 31 -250 37 -301 19 -380 29 -400 49 -11 11 -36
20 -56 20 -20 0 -54 11 -76 25 -61 38 -111 -3 -106 -87 2 -38 5 -182 6 -322 4
-289 10 -303 131 -275 118 27 518 26 570 -2 35 -18 48 -18 61 4 13 20 17 20
18 2 0 -19 70 -25 282 -25 l283 0 -9 -119 c-5 -74 -21 -134 -42 -157 -21 -23
-34 -71 -34 -126 -1 -131 -92 -439 -134 -453 -12 -4 -55 16 -96 44 -41 28 -82
46 -90 41 -14 -9 -44 37 -48 74 -1 8 -13 25 -26 38 -19 19 -23 13 -15 -27 6
-35 -1 -55 -26 -65 -58 -24 -145 -27 -158 -5 -7 12 -4 16 7 9 10 -7 19 0 19
15 0 15 -12 23 -26 17 -15 -6 -27 -21 -27 -33 0 -14 -7 -13 -18 4 -13 21 -19
20 -29 -5 -16 -44 -233 -47 -233 -3 0 16 -9 34 -21 42 -25 15 -83 -29 -68 -52
5 -9 -80 -16 -190 -16 -158 1 -206 -6 -232 -31 -64 -64 -105 38 -107 264 -1
113 -10 175 -29 194 -18 18 -32 103 -42 244 -10 148 -24 227 -44 250 -18 19
-33 82 -37 148 -5 90 -15 122 -50 148 -33 25 -42 49 -37 101 6 59 1 69 -35 68
-35 -1 -41 9 -38 67 2 37 -9 80 -23 95 -15 14 -36 49 -46 77 -36 95 -161 3
-161 -118 0 -22 -22 -82 -49 -133 -71 -132 -65 -307 9 -307 34 0 57 -16 72
-50 19 -45 21 -40 24 50 3 71 -2 91 -16 70 -14 -22 -19 -11 -20 46 0 43 14 91
31 108 17 17 36 57 42 88 14 66 66 78 81 18 6 -22 18 -40 27 -40 8 0 22 -36
29 -80 7 -44 21 -84 30 -90 8 -5 13 -42 9 -82 -5 -45 4 -84 22 -102 16 -16 29
-41 29 -55 0 -14 13 -37 30 -51 16 -13 24 -33 18 -43 -20 -33 -25 -166 -6
-178 10 -6 20 -58 21 -115 1 -57 10 -104 19 -104 9 0 19 -61 22 -135 4 -95 13
-134 31 -130 14 3 25 -15 25 -43 0 -83 -21 -112 -82 -112 -32 0 -58 -8 -58
-19 0 -128 -168 -80 -176 50 -7 113 -36 158 -66 104 -11 -19 -32 -35 -47 -35
-14 0 -36 -12 -49 -28 -59 -71 -202 -51 -202 29 0 20 -18 42 -40 49 -90 29 7
105 120 95 86 -9 104 -4 137 36 l38 47 33 -64 c18 -35 42 -64 53 -64 30 0 22
100 -10 112 -15 6 -37 37 -49 70 -11 32 -28 58 -38 58 -11 0 -24 27 -31 60
-13 65 -70 82 -111 33 -24 -29 -10 -93 20 -93 10 0 18 -13 18 -30 0 -16 15
-30 34 -30 52 0 -8 -53 -79 -71 -43 -11 -55 -6 -55 20 0 109 -88 133 -110 31
-7 -32 -29 -60 -51 -66 -46 -12 -51 -59 -9 -94 17 -14 30 -37 30 -51 0 -14 10
-29 22 -33 30 -10 -90 -136 -129 -136 -45 0 -51 21 -34 115 22 122 -42 116
-107 -10 -47 -92 -157 -87 -194 9 -21 56 -84 56 -95 -1 -4 -23 8 -40 35 -47
52 -13 71 -80 43 -153 -22 -59 -61 -55 -61 6 0 20 -17 41 -37 46 -30 8 -40 34
-47 122 -11 137 -21 148 -74 95 -45 -45 -159 -57 -195 -21 -25 25 -87 4 -87
-29 0 -42 -109 -131 -176 -144 -60 -12 -64 -18 -64 -100 l0 -88 2360 0 c1494
0 2360 7 2360 19 0 11 -37 54 -83 95 -45 42 -95 105 -110 141 -15 36 -46 84
-67 105 -22 22 -40 54 -40 70 0 61 -39 27 -61 -52 -19 -74 -17 -87 20 -121 23
-22 41 -64 41 -98 0 -68 -29 -77 -60 -19 -12 22 -33 40 -48 40 -20 0 -25 47
-23 200 3 185 0 204 -43 243 -25 24 -51 76 -58 115 -7 40 -26 87 -41 104 -16
18 -36 78 -45 134 -8 55 -30 115 -49 134 -18 18 -33 58 -33 89 0 30 -18 78
-40 106 -22 28 -40 57 -40 65 0 8 -18 37 -40 65 -22 28 -40 64 -40 81 0 17
-15 47 -32 67 -36 39 -75 191 -122 467 -17 99 -39 197 -50 218 -11 21 -27 123
-36 226 -9 103 -28 202 -43 219 -16 20 -28 105 -32 234 -9 281 -26 329 -99
275z m-721 -1776 c9 -5 10 -17 4 -27 -13 -22 6 -22 61 0 23 9 57 7 80 -7 22
-12 85 -23 140 -24 120 -2 218 -23 227 -49 3 -11 21 -19 40 -19 26 1 28 4 5
18 -21 14 -18 21 17 32 24 7 49 8 56 2 6 -6 23 -2 38 11 20 16 35 15 57 -3 16
-13 43 -19 58 -13 16 6 34 0 39 -13 6 -14 10 -11 11 8 2 36 59 43 100 10 16
-12 45 -23 65 -24 75 -6 81 -9 70 -38 -14 -36 26 -133 49 -119 8 5 22 -31 29
-81 7 -49 22 -90 31 -90 10 0 16 -7 14 -15 -9 -33 26 -224 44 -235 10 -6 14
-23 8 -38 -6 -15 4 -41 22 -59 18 -18 28 -40 22 -50 -6 -9 8 -37 31 -61 22
-25 36 -49 31 -55 -6 -6 -2 -37 10 -69 15 -44 14 -67 -7 -92 -20 -25 -20 -30
-2 -18 19 11 25 -1 21 -47 -2 -33 -9 -62 -15 -64 -41 -10 -195 -8 -211 2 -18
12 -62 13 -75 2 -68 -56 -114 3 -96 122 8 51 11 112 7 136 -4 29 2 39 17 29
17 -10 20 4 11 49 -7 35 -6 63 3 63 9 0 15 45 13 100 -2 55 4 100 13 100 14 0
14 42 -1 146 -1 9 -11 11 -22 4 -11 -7 -15 0 -10 14 6 15 -15 37 -50 53 -33
14 -55 35 -49 45 10 16 -18 27 -57 20 -9 -1 -35 8 -60 21 -58 31 -193 37 -188
9 2 -12 -18 -20 -46 -18 -168 11 -211 18 -221 31 -10 13 -78 17 -279 13 -166
-2 -276 56 -318 168 -24 61 14 114 79 114 22 0 39 10 39 22 0 20 104 9 145
-16z"/>
<path d="M2950 7286 c-22 -5 -53 -22 -70 -36 -16 -14 -96 -30 -177 -35 -84 -6
-154 -20 -163 -34 -8 -14 -31 -22 -52 -19 -134 17 -358 -117 -466 -279 -27
-40 -65 -97 -85 -127 -21 -30 -37 -68 -37 -85 0 -16 -18 -60 -40 -96 -22 -36
-40 -79 -40 -97 0 -17 -19 -49 -41 -69 -32 -28 -41 -59 -38 -128 4 -129 1
-145 -20 -131 -24 14 -50 -78 -34 -118 6 -18 27 -25 53 -18 24 7 38 22 32 38
-7 17 1 22 22 14 24 -9 28 -5 16 14 -12 20 -8 23 17 14 29 -11 31 -7 12 29
-25 46 -7 225 20 208 24 -15 166 288 155 331 -7 24 3 41 28 49 21 6 38 25 38
42 0 33 105 147 136 147 11 0 25 14 31 30 7 17 24 30 40 30 15 0 40 17 56 39
28 40 157 72 157 38 0 -11 9 -14 21 -6 11 7 34 1 50 -12 17 -14 36 -19 43 -12
7 8 -4 27 -25 43 -33 26 -34 28 -4 18 25 -9 32 -4 25 16 -12 31 -10 31 235 45
138 8 160 14 202 63 38 45 62 54 130 52 46 -2 83 5 83 16 0 11 -35 20 -77 20
-43 0 -104 4 -135 8 -32 5 -76 4 -98 -2z"/>
<path d="M590 7240 c-27 -86 47 -232 136 -266 19 -7 34 -22 34 -33 0 -12 14
-21 30 -21 44 0 37 86 -10 115 -22 14 -40 44 -40 66 0 22 -13 45 -28 51 -16 6
-39 37 -53 69 -28 69 -51 75 -69 19z"/>
<path d="M3638 7215 c-5 -52 7 -86 44 -126 28 -30 38 -71 38 -151 0 -70 12
-126 34 -157 22 -31 38 -111 47 -231 8 -100 23 -200 35 -221 11 -21 30 -135
42 -253 14 -144 34 -239 62 -290 22 -41 40 -91 40 -111 0 -56 41 -40 66 26 20
51 31 58 74 49 31 -7 67 1 90 20 22 17 30 28 17 25 -13 -3 -23 4 -24 14 0 10
-20 26 -45 36 l-44 16 41 39 c35 32 39 50 24 113 -9 41 -13 81 -8 88 4 7 -13
33 -39 57 -63 60 -94 20 -88 -115 4 -92 -25 -168 -54 -140 -6 6 -14 127 -18
269 -4 142 -16 294 -28 338 -78 291 -77 315 24 315 28 0 47 7 41 16 -5 9 8 29
29 44 22 15 42 40 46 56 3 16 23 39 43 51 33 19 30 22 -24 24 -34 1 -67 -7
-74 -17 -6 -11 -28 -19 -47 -19 -20 0 -59 -18 -87 -39 -62 -49 -75 -37 -75 72
0 120 -172 311 -182 202z"/>
<path d="M0 6996 c0 -68 5 -78 34 -67 19 7 29 7 21 -1 -21 -21 74 -87 174
-121 50 -17 118 -56 151 -87 62 -58 79 -92 35 -70 -14 7 -10 0 9 -15 27 -22
29 -34 10 -54 -19 -21 -16 -22 16 -6 42 21 174 65 195 65 7 0 32 -36 57 -79
31 -55 62 -83 102 -92 35 -8 68 -33 81 -62 17 -37 35 -48 67 -42 34 7 42 1 32
-23 -10 -28 -7 -28 23 -4 30 24 32 24 21 -5 -7 -18 -2 -33 10 -33 32 0 101
-74 85 -92 -7 -8 3 -9 22 -2 22 8 42 -1 55 -26 17 -31 30 -35 69 -20 40 15 51
11 61 -19 12 -40 68 -71 88 -49 7 8 1 18 -13 23 -40 14 -86 67 -75 85 6 9 -19
40 -55 69 -36 29 -84 71 -108 92 -23 22 -100 81 -170 132 -130 95 -165 124
-245 202 -25 24 -63 47 -84 50 -21 3 -51 15 -68 25 -61 38 -211 110 -229 110
-10 0 -51 22 -91 50 -39 27 -96 52 -126 54 -30 3 -59 20 -65 38 -24 78 -89 59
-89 -26z"/>
<path d="M840 6871 c0 -36 33 -58 61 -40 14 8 14 21 -2 41 -31 36 -59 36 -59
-1z"/>
<path d="M4460 6879 c0 -13 -14 -18 -32 -11 -20 8 -28 3 -22 -13 5 -14 19 -23
32 -20 12 3 22 -12 22 -34 0 -21 9 -44 20 -51 11 -7 20 -2 20 10 0 12 11 16
25 8 20 -11 20 -8 0 13 -14 15 -25 43 -25 62 0 19 -9 40 -20 47 -11 7 -20 2
-20 -11z"/>
<path d="M3981 6711 c-17 -20 -4 -28 53 -38 95 -15 104 -5 28 33 -48 24 -64
25 -81 5z"/>
<path d="M4200 6615 c0 -9 54 -14 119 -11 66 2 115 9 110 14 -17 17 -229 14
-229 -3z"/>
<path d="M351 6558 c-26 -35 -32 -38 -23 -10 11 32 8 34 -18 12 -16 -14 -30
-42 -30 -62 0 -22 -14 -38 -32 -38 -25 0 -28 -6 -11 -26 12 -14 16 -48 10 -75
-7 -35 -5 -41 9 -22 16 23 21 23 29 0 8 -20 13 -18 23 8 6 19 18 51 25 70 7
19 12 42 10 50 -2 8 10 15 25 15 36 0 50 39 33 88 -13 37 -16 36 -50 -10z"/>
<path d="M2658 6555 c-12 -41 -11 -77 3 -85 21 -13 63 59 45 77 -12 13 -45 18
-48 8z"/>
<path d="M2585 6398 c-45 -17 -63 -58 -24 -58 14 0 13 -13 -1 -41 -12 -22 -30
-35 -39 -30 -19 12 -47 -82 -32 -108 6 -9 -5 -15 -24 -14 -29 2 -36 -17 -41
-102 -4 -64 2 -105 15 -105 12 0 21 14 21 30 0 17 10 30 21 30 12 0 16 9 9 20
-7 11 1 14 19 8 24 -10 31 2 31 49 0 37 17 77 43 102 38 35 40 41 10 53 -18 7
-33 21 -33 31 0 11 7 15 16 10 18 -11 71 98 61 125 -4 9 -27 10 -52 0z"/>
<path d="M7579 6359 c-14 -8 -23 -55 -22 -107 1 -68 -6 -92 -28 -92 -16 0 -29
-18 -29 -41 0 -23 -8 -36 -18 -30 -66 40 -121 -697 -57 -761 46 -46 90 540 46
611 -6 9 7 31 27 50 26 22 42 26 51 12 8 -12 23 -16 33 -10 12 8 13 22 2 36
-10 13 -11 46 -3 73 8 28 16 43 17 34 3 -22 72 47 98 98 44 85 -39 175 -117
127z"/>
<path d="M114 6253 c-38 -58 -45 -113 -13 -113 12 0 16 -8 10 -18 -6 -10 -5
-34 2 -53 20 -52 67 20 66 100 -3 114 -26 144 -65 84z"/>
<path d="M416 5826 c-31 -5 -59 -25 -66 -47 -7 -22 -25 -39 -41 -39 -15 0 -60
-18 -99 -40 -90 -50 -83 -52 -99 30 -22 117 -102 100 -99 -21 3 -112 -4 -107
139 -112 119 -4 249 69 249 141 0 12 12 22 26 22 15 0 44 14 65 30 38 29 38
30 1 17 -27 -10 -34 -7 -24 10 8 12 12 22 8 20 -3 -2 -30 -7 -60 -11z"/>
<path d="M601 5688 c-38 -27 -87 -75 -109 -107 -23 -31 -63 -71 -90 -87 -27
-16 -58 -60 -70 -97 -30 -92 -237 -106 -248 -17 -18 155 -84 111 -84 -56 0
-87 5 -107 24 -88 41 41 124 29 146 -20 17 -39 36 -45 143 -46 l123 -2 -7 76
c-6 59 1 80 31 96 30 16 36 34 27 80 -10 51 -6 60 30 60 23 0 53 14 67 31 14
18 42 49 61 70 19 22 35 44 35 49 0 6 0 18 0 28 0 9 19 22 42 28 48 13 33 55
-18 52 -19 -1 -65 -23 -103 -50z"/>
<path d="M745 5525 c-46 -8 -74 -71 -62 -138 11 -55 124 -60 176 -8 48 48 141
56 141 12 0 -17 25 -43 55 -58 73 -38 119 -92 131 -153 l9 -50 15 46 c8 25 45
58 83 74 78 32 88 70 20 70 -26 0 -81 23 -121 50 -41 28 -87 50 -104 50 -16 0
-34 13 -40 29 -14 35 -76 58 -158 57 -33 0 -69 6 -80 13 -11 7 -40 10 -65 6z"/>
<path d="M7013 5471 c-6 -16 -2 -35 8 -42 11 -6 15 -19 9 -28 -5 -9 4 -22 21
-29 18 -6 26 -20 20 -30 -6 -11 7 -25 29 -32 26 -8 40 -30 40 -64 0 -43 5 -47
30 -26 24 20 32 18 42 -7 6 -17 29 -37 50 -44 21 -6 33 -20 27 -30 -6 -11 -2
-19 10 -19 11 0 21 -10 21 -22 0 -34 73 -118 89 -102 8 8 13 -4 11 -26 -8 -76
1 -125 16 -86 34 85 3 246 -56 286 -31 21 -71 68 -88 104 -17 36 -40 66 -52
66 -11 0 -19 7 -18 15 6 38 -4 65 -25 65 -13 0 -38 12 -55 28 -53 45 -116 57
-129 23z"/>
<path d="M925 5241 c-13 -22 -16 -44 -6 -50 30 -19 83 12 77 45 -9 46 -43 49
-71 5z"/>
<path d="M506 5205 c-7 -19 -21 -40 -31 -47 -30 -20 75 -118 127 -119 27 0 81
-13 122 -27 63 -23 77 -22 104 5 24 24 47 26 106 12 92 -23 111 -78 39 -111
-29 -14 -53 -45 -60 -79 -13 -66 -154 -159 -240 -159 -33 0 -53 -11 -53 -29 0
-68 238 -92 296 -30 33 35 47 39 83 20 58 -31 87 -9 58 44 -19 37 -15 49 35
88 45 36 52 51 33 70 -34 34 -32 97 3 97 15 0 33 -15 40 -32 10 -25 28 -29 77
-19 36 7 99 18 140 24 238 35 -7 193 -283 183 -161 -6 -173 -3 -191 38 -21 47
-134 86 -146 51 -34 -103 -125 -89 -125 19 0 50 -116 51 -134 1z"/>
<path d="M273 5004 c-36 -41 -26 -64 28 -64 49 0 61 -48 26 -98 -16 -23 -24
-51 -18 -61 7 -11 -16 -34 -51 -52 -34 -18 -57 -24 -51 -14 6 11 -11 31 -39
46 -39 21 -49 39 -41 77 10 55 -32 100 -92 101 -68 2 -48 -167 26 -220 81 -57
78 -146 -6 -155 -50 -6 -55 -14 -55 -90 0 -46 7 -74 15 -62 8 13 35 29 59 36
24 8 50 34 57 58 23 75 72 114 142 114 70 0 147 85 147 164 0 45 38 66 67 37
23 -23 26 -31 31 -91 1 -21 20 -29 61 -26 45 3 55 11 42 33 -11 20 0 45 31 77
77 77 59 99 -70 88 -64 -6 -160 34 -224 92 -49 45 -52 46 -85 10z"/>
<path d="M5607 4882 c-7 -39 -21 -56 -39 -48 -21 8 -28 -10 -28 -73 0 -53 8
-79 21 -70 11 7 32 3 45 -8 34 -28 106 55 98 113 -4 24 3 44 15 44 11 0 19
-11 16 -25 -3 -14 9 -25 25 -25 17 0 48 -20 71 -45 68 -76 80 -55 32 61 -13
31 -23 68 -23 83 0 14 -20 24 -45 22 -25 -2 -54 1 -65 7 -66 36 -111 22 -123
-36z"/>
<path d="M2740 4882 c0 -12 9 -22 20 -22 11 0 20 -16 20 -36 0 -22 16 -37 43
-39 23 -1 61 -21 85 -42 48 -46 167 -83 144 -46 -8 13 -4 23 8 23 12 0 20 -20
16 -45 -7 -53 123 -69 140 -17 6 17 0 22 -13 14 -13 -8 -23 -4 -23 8 0 14 -16
18 -40 10 -40 -13 -49 3 -42 70 3 24 0 25 -15 3 -14 -21 -25 -17 -50 19 -18
26 -33 40 -33 33 0 -13 -83 15 -225 75 -21 8 -35 5 -35 -8z"/>
<path d="M5900 4790 c12 -14 19 -38 16 -53 -8 -37 49 -34 59 3 7 27 6 27 -13
0 -13 -18 -22 -21 -22 -6 0 13 9 29 20 36 35 22 22 40 -31 43 -39 2 -46 -3
-29 -23z"/>
<path d="M4781 4272 c-12 -16 -21 -65 -18 -110 l5 -82 137 0 c134 0 137 1 124
45 -33 108 -199 206 -248 147z"/>
</g>
</svg>
